<svg id="Camada_1" xmlns="http://www.w3.org/2000/svg" viewBox="0 0 648.3 608.3"><style>.st0{opacity:.2}.st1{opacity:.15}.st2{fill:#fff}.st3{fill:none}</style><title>Ativo 1</title><g class="st0"><g id="Camada_2"><g id="Objects"><g class="st1"><path class="st2" d="M598.8 392.1h.8l-2.5-17.1c-1 5.7-.4 11.7 1.7 17.1zM137.9 182.9c4.1 1.6 8.3 3.2 12.7 3.1 3.8-.1 7.5-1 11.3-1.6 1.9-.3 3.3-1.4 4.8-2.9-9.6-1-19.3-.5-28.8 1.4z"/><path class="st3" d="M247 209.4c-.4-.9-1.3-1.3-2.4-1.1-1 .1-1.1.8-1.3 1.6-.5 3.6-1.3 7.2-2.5 10.6-1 2.6-2 3.3-4.8 3.4-2.2 0-4.3.1-6.5.4-.9.3-1.9-.1-2.5-.9-.1-.2-.3-.3-.5-.5-1.5-1.3-2.5-3.1-4.4-4-.2-.1-.6-.3-.7-.2-.2.3-.4.6-.4.9-.1.4.1.8 0 1.2-.1 1.1-.3 2.1-.5 3.2-.1.6-.1 1.3-.1 1.8l1.2.4.1.3c.5-.7.9-1.4 1.2-2.2.4-1 .8-1.2 1.6-.5l5.4 5.1c.5.6 1.4.8 2.1.6.8-.3 1.5-.5 2.3-.6 1.8-.2 3.7-.2 5.6-.3s3.4-.6 4.2-2.4c1.3-3 2.2-6.1 2.5-9.3.2-1.4.7-2.8.3-4.2-.1-.3-.2-.7-.1-.9.8-.9.5-1.7.2-2.4zm-14.3 73.4h.4l.2-1.3-.5-.1-.1 1.4zm-53.9 116.6c-.1.3-.2.6-.2.8 0 .6 0 1.1-.1 1.7-.2 1.1-.3 2.4-1.4 3.1-2 1.5-4.2 2.7-6.6 3.4-1.3.5-2.5 1-3.7 1.6-.2.1-.4.5-.4.6.4.6.8 1.4 1.6 1.6.7.2 1.5.4 2.3.4.7 0 1.3 0 2-.1.9 0 1.9-.2 2.8-.4 1.4-.6 2.7-1.2 4.1-1.9.8-.4 1.4-1.1 1.6-1.9.2-.9.4-1.8.7-2.7.3-1.2.2-2.5-.3-3.6-.6-1-1.4-2-2.4-2.6zm8.1-8.8c-1.2.7-1.3.7-1 2 .3.8 0 1.7-.7 2-.1.1-.3.2-.4.3.2.3.3.6.6.9.1.1.4.3.5.2.3-.1.7-.3.9-.6.6-1 .6-1 1.6-.3.4.3 1.1.3 1.4-.2v-.1c.8-1 1.6-1.9 2.3-2.9.2-.2.4-.5.5-.8.2-.9 0-1.9-.6-2.7-1.7.5-3.5 1.2-5.1 2.2zM218 229.1c.1 2.1.9 4.1 2.4 5.6.3.2.6.4.9.5.2-.4.6-.9.5-1.2-.4-1.5-.2-3.3-1.6-4.5-.7-.6-1.2-1.2-2.2-.4zm16.6 73.6l-.5-.2-.2 1.3.4.1.3-1.2zm-96.7-119.8c4.1 1.6 8.3 3.2 12.7 3.1l16.1-4.5c-9.6-1-19.3-.5-28.8 1.4zm-76.4-19.8c2.5 1 5.3 1.1 7.8.3-1.8-1-5.1-1.1-7.8-.3zm164.2 95.3l.6.1.3-1.5-.7-.1-.2 1.5zm28.2 16.1c.3.4.8.7.8 1.1.1.5.4 1 .8 1.4.6.7.8 1.7 1.8 2.1 0 0 0 .1.1.2.2.2.4.4.6.5.7.1 1.3.2 2 .3.6.2 1.3.2 1.9-.2.9-.4 1.8-.9 2.8-1.2 1.2-.3 2.3-.9 3.2-1.7.6-.4.8-1.3.3-1.9L267 273c.7.3 1.4.1 1.9-.4.4-.4.7-.9 1.2-1.1 1-.3 1-1.1 1-1.9-.1-2.3-.8-4.5-2-6.3-.5-.9-1.4-1.6-2.4-1.8 0 .9.1 1.9 1 2.4.1 0 .1.1.1.2.4 1.2.4 2.5-.2 3.6-.5.8-.9 1.7-1.3 2.6-.3.8-.7 1.6.3 2.2-2.2 1.8-4.7 3.4-7.3 4.7-1-1.9-3.1-3.1-5.3-3l-.1.3zm11.4 69.4c.6 3.9 3.4 5 6.9 5.5-1.2 1.8-2.4 3.6-3.8 5.3-2.2 2.4-5.1 2.7-8.1 2.4-2.1-.4-4.1-1.4-5.6-3-.6-.6-1.2-1.3-2.4-.6.8 1 1.5 2 2.4 2.9 1.4 1.5 3 2.7 4.8 3.7 1.4.9 3.1 1.4 4.8 1.4.9 0 1.8-.3 2.7-.3 1.5-.1 2.9-.7 4-1.6.3-.2.5-.4.6-.7.8-1.6 1.5-3.3 2.2-4.9.4-.9.7-1.9 1-2.9l-.4-.1c.3-1.3.3-1.3 1.6-1.3.5 0 1 0 1.5-.1.2 0 .5-.5.5-.5-.4-.7.1-1.3.4-1.6.5-.7.6-1.5.5-2.4-.1-.7 0-1.5.4-2.1.2-.3.3-.7.3-1.1-.1-.8-.5-1.5-1.1-1.9-.4-.4-.8-.4-1 .1-.5 1.2-1.1 2.4-1.5 3.6-.2 1-1.2 1.7-2.2 1.6-2.6.1-5.3-.4-7.7-1.4h-.8zm21.6-40.6c1.9 1.7 3.9 3.2 6 4.7.7.4 1.5.5 2.3.3 1.1-.4 2-1 2.9-1.7 1.1-.8 2.1-1.7 3-2.7.4-.5 1.5-.5 1.3-1.5s-.4-2.3-.6-3.7c-1 .4-1.7.7-2.4 1-2 .8-4 1.6-6 2.3-1.3.4-2.7.1-3.7-.9-.9-.8-2-1.4-2.9-2.3-.5-.7-1.5-.8-2.2-.3l-.1.1c.3 1.7 1.1 3.4 2.4 4.7zm-53.4 4.1l-.6-.1-.4 2 .6.1.4-2zm1.1 47.9c.6-1.8-.2-2.6-1.9-2.9s-3.4-.7-5.1-1.1c-.1.6.1 1.2.4 1.7-.6-.1-.9.2-.6.8.4 1 1.1 1.8 2 2.3l.3-.1-.3-1.4c1.7 1.8 3.5.8 5.2.7zm3.2 11.7c-.9.2-1.8.4-2.8.5-1.2.2-2.4.3-3.6.4l-.1.8c.5.5.8 1 1.2 1.4 1.1 1.3 2.1 1.9 3.4 1.5.7-.2 1.5-.5 2.2-.9.7-.3 1.1-1 1.1-1.8 0-.7-.3-1.3-.7-1.8-.2-.2-.3-.3-.7-.1z"/><path class="st3" d="M247 209.4c-.4-.9-1.3-1.3-2.4-1.1-1 .1-1.1.8-1.3 1.6-.5 3.6-1.3 7.2-2.5 10.6-1 2.6-2 3.3-4.8 3.4-2.2 0-4.3.1-6.5.4-.9.3-1.9-.1-2.5-.9-.1-.2-.3-.3-.5-.5-1.5-1.3-2.5-3.1-4.4-4-.2-.1-.6-.3-.7-.2-.2.3-.4.6-.4.9-.1.4.1.8 0 1.2-.1 1.1-.3 2.1-.5 3.2-.1.6-.1 1.3-.1 1.8l1.2.4.1.3c.5-.7.9-1.4 1.2-2.2.4-1 .8-1.2 1.6-.5l5.4 5.1c.5.6 1.4.8 2.1.6.8-.3 1.5-.5 2.3-.6 1.8-.2 3.7-.2 5.6-.3s3.4-.6 4.2-2.4c1.3-3 2.2-6.1 2.5-9.3.2-1.4.7-2.8.3-4.2-.1-.3-.2-.7-.1-.9.8-.9.5-1.7.2-2.4zm-14.3 73.4h.4l.2-1.3-.5-.1-.1 1.4zm-53.9 116.6c-.1.3-.2.6-.2.8 0 .6 0 1.1-.1 1.7-.2 1.1-.3 2.4-1.4 3.1-2 1.5-4.2 2.7-6.6 3.4-1.3.5-2.5 1-3.7 1.6-.2.1-.4.5-.4.6.4.6.8 1.4 1.6 1.6.7.2 1.5.4 2.3.4.7 0 1.3 0 2-.1.9 0 1.9-.2 2.8-.4 1.4-.6 2.7-1.2 4.1-1.9.8-.4 1.4-1.1 1.6-1.9.2-.9.4-1.8.7-2.7.3-1.2.2-2.5-.3-3.6-.6-1-1.4-2-2.4-2.6zM218 229.1c.1 2.1.9 4.1 2.4 5.6.3.2.6.4.9.5.2-.4.6-.9.5-1.2-.4-1.5-.2-3.3-1.6-4.5-.7-.6-1.2-1.2-2.2-.4zm7.7 29.3l.6.1.3-1.5-.7-.1-.2 1.5zm-87.8-75.5c4.1 1.6 8.3 3.2 12.7 3.1l16.1-4.5c-9.6-1-19.3-.5-28.8 1.4zm-76.4-19.8c2.5 1 5.3 1.1 7.8.3-1.8-1-5.1-1.1-7.8-.3zm125.4 227.5c-1.2.7-1.3.7-1 2 .3.8 0 1.7-.7 2-.1.1-.3.2-.4.3.2.3.3.6.6.9.1.1.4.3.5.2.3-.1.7-.3.9-.6.6-1 .6-1 1.6-.3.4.3 1.1.3 1.4-.2v-.1c.8-1 1.6-1.9 2.3-2.9.2-.2.4-.5.5-.8.2-.9 0-1.9-.6-2.7-1.7.5-3.5 1.2-5.1 2.2zm50.9-23.6c-.9.2-1.8.4-2.8.5-1.2.2-2.4.3-3.6.4l-.1.8c.5.5.8 1 1.2 1.4 1.1 1.3 2.1 1.9 3.4 1.5.7-.2 1.5-.5 2.2-.9.7-.3 1.1-1 1.1-1.8 0-.7-.3-1.3-.7-1.8-.2-.2-.3-.3-.7-.1zm-3.2-64.3l-.5-.2-.2 1.3.4.1.3-1.2zm19.3-28.2c.3.4.8.7.8 1.1.1.5.4 1 .8 1.4.6.7.8 1.7 1.8 2.1 0 0 0 .1.1.2.2.2.4.4.6.5.7.1 1.3.2 2 .3.6.2 1.3.2 1.9-.2.9-.4 1.8-.9 2.8-1.2 1.2-.3 2.3-.9 3.2-1.7.6-.4.8-1.3.3-1.9L267 273c.7.3 1.4.1 1.9-.4.4-.4.7-.9 1.2-1.1 1-.3 1-1.1 1-1.9-.1-2.3-.8-4.5-2-6.3-.5-.9-1.4-1.6-2.4-1.8 0 .9.1 1.9 1 2.4.1 0 .1.1.1.2.4 1.2.4 2.5-.2 3.6-.5.8-.9 1.7-1.3 2.6-.3.8-.7 1.6.3 2.2-2.2 1.8-4.7 3.4-7.3 4.7-1-1.9-3.1-3.1-5.3-3l-.1.3zm11.4 69.4c.6 3.9 3.4 5 6.9 5.5-1.2 1.8-2.4 3.6-3.8 5.3-2.2 2.4-5.1 2.7-8.1 2.4-2.1-.4-4.1-1.4-5.6-3-.6-.6-1.2-1.3-2.4-.6.8 1 1.5 2 2.4 2.9 1.4 1.5 3 2.7 4.8 3.7 1.4.9 3.1 1.4 4.8 1.4.9 0 1.8-.3 2.7-.3 1.5-.1 2.9-.7 4-1.6.3-.2.5-.4.6-.7.8-1.6 1.5-3.3 2.2-4.9.4-.9.7-1.9 1-2.9l-.4-.1c.3-1.3.3-1.3 1.6-1.3.5 0 1 0 1.5-.1.2 0 .5-.5.5-.5-.4-.7.1-1.3.4-1.6.5-.7.6-1.5.5-2.4-.1-.7 0-1.5.4-2.1.2-.3.3-.7.3-1.1-.1-.8-.5-1.5-1.1-1.9-.4-.4-.8-.4-1 .1-.5 1.2-1.1 2.4-1.5 3.6-.2 1-1.2 1.7-2.2 1.6-2.6.1-5.3-.4-7.7-1.4h-.8zm21.6-40.6c1.9 1.7 3.9 3.2 6 4.7.7.4 1.5.5 2.3.3 1.1-.4 2-1 2.9-1.7 1.1-.8 2.1-1.7 3-2.7.4-.5 1.5-.5 1.3-1.5s-.4-2.3-.6-3.7c-1 .4-1.7.7-2.4 1-2 .8-4 1.6-6 2.3-1.3.4-2.7.1-3.7-.9-.9-.8-2-1.4-2.9-2.3-.5-.7-1.5-.8-2.2-.3l-.1.1c.3 1.7 1.1 3.4 2.4 4.7zm-53.4 4.1l-.6-.1-.4 2 .6.1.4-2zm1.1 47.9c.6-1.8-.2-2.6-1.9-2.9s-3.4-.7-5.1-1.1c-.1.6.1 1.2.4 1.7-.6-.1-.9.2-.6.8.4 1 1.1 1.8 2 2.3l.3-.1-.3-1.4c1.7 1.8 3.5.8 5.2.7z"/><path d="M387.8 156.2l-3.8-.3c1.2-.7 2.6 0 3.5-1.4-9.7-.4-19-.2-28.4.2-6.1.3-12.3.2-18.5 0-10.6-.4-21.3-1.1-31.9-1.4-7.1-.2-14.3-.1-21.4-.1-2.8-.2-5.7 0-8.5.4-9.2 1.8-18.3 4-27.5 6-.8.2-1.6.3-3 .6 1.1-1.4 2.4-2.2 2.5-3.1.4-2.4 2.1-2.3 3.8-2.8s3.5-1.2 5.2-1.9c.8-.3 1.5-.9 2.3-1.3 4.4-2.3 9.4-3 14.1-4.5 2.6-.9 5.2-1.6 7.8-2.6 1.7-.6 3.2-1.9 4.9-2.2 3.3-.5 6-2.1 9-3.2 1.3-.5 2.6-.9 3.9-1.2 4.5-1.1 9.1-2.1 13.6-3.2.6-.2 1.2-.6 1.6-1.1.8-.9 1.4-1.9 2.3-3.1l-3.3 1c.8-1.1 1.9-2 3.2-2.6 1.7-.6 3.3-1.4 4.9-2.2 2.3-1.1 4.7-2 7.2-2.7 1.9-.7 3.9-.8 5.8-1.7.9-.3 1.9-.5 2.8-.6 4.2-.5 8.5-.8 12.7-1.6 3.8-.8 7.5-2.2 11.2-3.4 1.2-.4 1.6-1.3 2.7-2.7-4.7.2-8.8.1-12.8.5-7.3.8-14.6 1.6-21.8 2.8-15.1 2.4-30.1 4.8-45 8.2-6.2 1.4-12.5 2.3-18.4 4.8-2.7 1.1-5.5 1.9-8.3 2.8-2.1.7-4.3 1.3-6.4 2.2-4.2 1.6-8.3 3.4-12.5 5.1s-8.1 3.4-12.2 4.9c-4.7 1.8-9.3 3.6-14.3 4.1-3.4.4-6.8.9-10.1 1.6-11.6 2.5-23.4 3.4-35.2 4.5-5.6.5-11.1.8-16.6 1.7-3.8.8-7.8 1-11.7.6-5.3-.7-8.9 2-13.1 5.1l4 .9c-.5 1-1 1.9-1.5 2.8-.9 1.3-2.1 2.3-3.9 2.1-2.8-.3-5.6-.6-8.4-1.1-5.4-.9-10.9-1.4-16.3-1.5-4.6-.1-9.1-.4-14.1-.7.6-.8.9-1.1 1.2-1.5 6-6.7 7.5-14.8 6.5-23.2-.9-7.4-3.8-14.3-7.2-21-1.7-3.4-3.3-6.8-4.9-10.3-1.1-2.5-1.2-5.4-.1-8 .8-2.3 2-4.4 3-6.7.3-.6.9-1.4.7-1.8-.4-1 .1-1.4.6-2 .5-.6.9-1.3 1.2-2 1.7-3.4 3.9-6.5 6.4-9.4 1.3-1.1 2.4-2.3 3.5-3.6 2-2.6 4.4-4.7 7.3-6.2 5.8-3.4 11.6-6.6 17.4-9.8l-.1-.4-4.2.6.6-.9c-.3-.1-.5-.1-.8-.1-6.9 1.5-13.6 3.5-19.7 7.3-10 6.4-16.2 15.7-20.8 26.3-1.4 3.2-1.7 6.7-.8 10.1 1.3 5.4 3.5 10.6 6.3 15.4 1.9 3.4 3.4 7.1 4.4 10.9 2.1 7.3 1.4 15.2-2 22-1.1 2.3-2.8 4.3-5 5.7-2.1 1.3-4.2 2.5-6.2 4s-3.7 2.9-6.3 1.5c-.4-.1-.8-.1-1.2-.1-7.2-.2-14.5 0-21.5 2.1-.7.1-1.4.1-2.2 0-2-3.8-5.4-6.3-9-8.5-.8-.4-1.5-.9-2.2-1.4-7.7-5.6-15.3-11.3-18.8-20.8-.4-1.1-.8-2.2-1.3-3.3-.2-.4-.4-.8-.7-1.1-1.3.7-1.3-.5-1.5-1.1-6-13.9-5.4-27.8.4-41.6 1-1.9 2.1-3.7 3.4-5.4.7-1.1 1.5-2.3 2.2-3.4 1.4-2.3 3-4.5 4.6-6.6 2.8-3.2 5.7-6.3 8.7-9.4 3.3-3.5 7.8-4.7 11.9-6.7 5-2.5 10.3-4.4 15.7-5.6 3.8-.9 7.5-2.2 11.5-2 3.5.1 7-.5 10.3-1.8 2.4-.7 4.9-1.2 7.4-1.5 2.2-.4 4.4-.7 6.6-1.3 4.3-1.3 8.6-2.7 12.8-4.2 2.9-1 5.8-2.2 8.9-3.3l-.8-2.3c-1 .2-2 .4-3 .7-8 2.8-16.2 5.2-24.5 7-6.9 1.7-13.9 2.4-21 2.1-3.4-.3-6.9.1-10.2.9-7.3 2.3-14.3 5.4-21.4 8-3.7 1.4-7.2 3.5-10.2 6.1-1.9 1.6-3.6 3.3-5.2 5.2-2.7 3-5.2 6.1-7.9 9-4.7 4.7-8 9.9-9 16.1-.8 5-1.7 10.1-1.7 15.1.2 5.7 1.4 11.3 3.5 16.6 2.6 7.5 6 14.7 10.2 21.4 5.4 8.5 11.9 16 20.1 21.9.4.2.8.3 1.2.4l-.5.7-14 1.9c-.7 2.3.2 3.6 1.7 4.9 1.8 1.7 3.7 3.3 5.8 4.6 3.2 1.8 5.8 4.8 8.7 7.3 2.4 2.1 4.6 4.5 7.1 6.5 4.6 3.6 9.1 7.4 12.7 12.1 1.1 1.5 2.3 2.9 3.5 4.3 2 2.3 4.3 4.1 7 5.5 1.1-1.3 2.1-2.7 3-4.2 2.3-4.2 6.4-4.8 10.5-5.3 3.3-.4 6.6-.2 9.9-.3 6.1-.1 12.1.4 18 1.5 4.8.8 9.6 1.7 14.4 2.5 3 .5 6 .6 9 1.1 4.6.7 8.5 3 12.8 5.4-.9.5-1.8.9-2.8 1.3-5.5 1.7-11 3.6-16.5 5.1-11.4 3.1-22.8 6.3-34.2 10.1-2.2.8-4.6 1-6.9.7-2.6-.5-5.2-.7-7.8-.5-1.3.1-2 .6-2.1 1.9-.1 1.9-1.2 3.6-3 4.4-2.6 1.3-5.3 2.5-8 3.6-3.7 1.5-7.5 2.8-11.4 4.2.9 2.9 2.4 5.6 4.4 7.9.9 1.1 2.3 2.2 4.1 1.4 2.1-.9 4.2-1.5 6.3-2.3 3.9-1.5 7.8-3 12-3.7 1.2 2.3 2.3 4.4 3.4 6.7 1.1 2.5 2.9 4.7 5.2 6.2 1.8 1.1 3.6 2.4 5.2 3.8 2.4 2 5.5 3.1 8.6 3 5.4.2 10.7 1.3 15.7 3.3 6.4 2.5 10.9 7.5 15.1 12.7 3.8 4.8 8.4 8.8 13.6 12 4.3 2.5 8.3 5.5 11.9 8.9 5.4 5.1 11.4 9.5 17.9 13.1 2 1.2 4.4 2.4 7 2 .1-2.5-1.5-3.3-3-4.2-6.4-3.9-12.4-8.6-17.8-13.9-4.6-4.5-9.3-9-14.3-13-7.7-6.5-14.9-13.5-21.5-21.1-2.7-3.1-6.2-5.5-10.1-6.8-4.8-1.7-9.8-2.8-14.9-3.3-1.2-.1-2.3-.3-3.4-.7-3.2-1.1-5.9-2.8-6.6-6.4-.4-2-.4-4.1-.6-6.3 1.1-.3 1.9-.6 2.8-.7 3.1-.5 6.2-.9 9.3-1.4 10.2-1.8 20.4-3.1 30.8-3.9 1.4-.1 2.7-.6 4-.4 3.9.6 7.4-.8 11.1-1.4 2-.3 3.8-1 5.8.2 1.2.5 2.5.5 3.6-.1 1.9-1.3 4.6 0 6.2-2 .1-.1.3 0 .5.1 3.8.7 7.3-.7 10.9-1.2 5.5-.7 11-1.8 16.5-2.4 2.2-.2 4.5.3 6.7.4.9 0 1.9 0 2.8-.2 2.7-.7 5.5-.1 7.7 1.7 5.8 4.6 9.8 10.6 14.4 16.2 2.2 2.6 2.2 5.5 1.4 8.6-.6 2.1-.8 4.3-1.3 7l2.6-1v5c2 0 3.8-.1 5.4 1 .3.2.9-.2 1.4-.3l2.3-.6c-.2.9-.3 1.4-.4 1.9-.3 1-1 2-1 3 0 1.3-.2 2.6-.5 3.9.5.2.9.4 1.2.8 1.4 1.5 3.3 2.5 5.3 2.9 2.9.3 5.7 0 7.8-2.3 1.3-1.6 2.5-3.3 3.6-5.1-3.3-.5-6-1.6-6.6-5.3.2 0 .5 0 .7.1 2.3 1 4.8 1.4 7.2 1.3 1 .1 1.9-.6 2.1-1.6.4-1.2.9-2.3 1.4-3.4.2-.5.6-.5 1-.1.6.5 1 1.1 1 1.9 0 .4-.1.8-.3 1.1-.3.6-.4 1.3-.3 2 .2.8 0 1.6-.5 2.3-.2.3-.8.9-.3 1.5 0 .1-.3.5-.5.5-.5.1-1 .1-1.4.1-1.3 0-1.3-.1-1.5 1.2l.4.1c-.3.9-.6 1.9-1 2.7-.7 1.6-1.4 3.1-2.1 4.7-.1.3-.3.5-.6.7-1.1.9-2.4 1.4-3.8 1.5-.9 0-1.7.3-2.6.3-1.6 0-3.2-.4-4.6-1.3-1.7-1-3.3-2.2-4.6-3.6l-1.5-1.8c-.7 2.6-1.6 5.1-2.2 7.6-.3 1.5-1.4 2.9-2.3 4.3-.5.9-1.5 1.6-1 3l2.9-.9-.8 4.8c.5.2 1 .4 1.5.4 3.3 0 3.4.4 2.6 3.5-.9 3.5-1.6 7-2.5 10.5-.3 1.1-.7 2.2-1.1 3.3 0 .1-.3.1-.6.2v-2.2l-1.4.3c.4-2.4 2.8-4.3.7-6.8-.5 1.1-.9 2.1-1.3 3.3-.5 1.3-.8 2.7-.8 4.2 0 1.2-.2 2.5-.5 3.6-.4 2-1 4.3-.3 6 1 2.1.6 3.6-.1 5.5-.3.7-1 1.4-.2 2.7 2.2-4.3 4.5-8.1 5.6-12.6 0 2-.1 3.9-.5 5.8-1 4.5-2.7 8.8-5.2 12.7-4.3 7.2-9.3 14-14.8 20.3l5.1 4.2c.8.7 2 .7 2.8-.1.8-.7 1.5-1.3 2.2-2 .1-.1.3-.2.5-.3.7-.1 1.2-.6 1.3-1.3.4-1.2.7-2.5 1.1-3.7.1-.2.2-.5.3-.8.8.6 1.5 1.5 1.8 2.5.7 1.8.8 3.8.4 5.7-.2 1.1-.8 2.1-1.8 2.7-.9.5-1.5 1.5-2.4 2.1-.6.5-1.3.8-2 .8-.7-.2-1.4-.6-1.9-1.1-1.6-1.3-3.2-2.7-4.9-4-1.2-.8-2.2-1.8-2.9-3.1-.1-.3-.3-.5-.4-.8-2.3 2.6-4.6 5.1-7.1 7.5-9.6 9.6-21 17.3-31.8 25.4-4.4 3.3-8.8 6.5-13.2 9.8-6.9 5.1-13.8 10.3-20.7 15.5-5.1 3.8-10.2 7.5-15.4 11.2.1 1.9-.3 2.2-2.4 2.2l-2.5 1.8c-.8.6-1.7 1.2-2.5 1.8-.1.1-.2.3-.3.4-.1.2-.2.4-.2.5l-.8.9c-2.2 1.2-4.5 2.5-6.7 3.7-.2.1-.6.4-.5.6.1 1.9-1.3 2.3-2.7 2.8-.5.2-.9.9-1.3 1.4-1.2 1.4-2.2 3.1-4.2 3.6v.1h-.1c-.5 1.1-1 2.2-2.6 1.5-.9 1.8-2.3 3.3-4 4.4-.6.4-1.3.7-1.9.9-1.6.8-3 2.1-3.9 3.7-.8 1.2-1.2 2.7-2.4 3.6-1.7 1.4-3.6 2.5-5.4 3.7L78 465l-.4.3-.8-1.1c-.3 1.1-.8 2.1-1.3 3.1-1.9 2.5-3.9 4.8-5.9 7.2-.4.6-.7 1.2-1 1.8l.5.3c.7-.9 1.5-1.7 2.3-2.5.9-.8 1.2.1 1.7 1l5.3-4.7c-.2 1.3-.7 2.5-1.5 3.5-1.7 2.3-3.5 4.5-5.1 6.8-2.9 4.3-5.7 8.6-8.6 12.9-1.6 2.4-3.9 4.3-4.3 7.4 0 .3-.5.6-.7.9l-2 1.8c-.2.2-.5.3-.7.5-.2.1-.4.3-.6.5-4.7 6.8-9.5 13.6-14 20.5-3.1 4.8-5.8 9.7-8.7 14.6-.5.9-1.4 1.9-.8 3.6l3.1-2.9-.8 5.4c1.9-1.4 3.3-3.3 6.2-2-.7 2.9-3.2 5.3-2.6 8.3-3.5 3.4-6.8 6.5-10 9.8-1.1 1.1-2 2.4-2.6 3.8-.4 1.3-1.4 2.2-1.6 3.7-.1 1.3-1.4 2.5-2.1 3.8-.6 1.1-1.1 2.3-1.7 3.4l.4.2 4.8-5c-2.4 4.7-5.2 9-7.7 13.5-1.8 3.3-3.4 6.7-6.3 9.3 3.2.7 5-1.1 6.6-3.3.2-.2.3-.5.5-.7 1.7-2.5 3.3-5.1 5.1-7.5 5.3-7.6 10.7-15.2 16.2-22.7 3.7-5.2 7.4-10.3 11.2-15.4 3.2-4.2 6.5-8.3 9.8-12.4 2.3-2.9 4.9-5.6 7.2-8.5 3.8-4.9 8-9.6 12.6-13.9 3.3-3.1 6.8-6.2 10.1-9.3 2.9-2.8 5.7-5.8 8.6-8.6.5-.4.9-.7 1.5-1-.4 1.8-2.3 2.1-2.5 4.3 21.6-19.4 42.6-38.6 64.3-57l.4.4-1.2 1.9 1.8 1.5c6.5-3.8 13-7.7 19.6-11.6 2.2-1.3 3.5-2.9 2.3-5.2l6-3.7c-.3 0-.7-.1-1-.2-1.2-.7-2.1-1.7-2.6-2.9-.2-.4-.4-.9-.7-1.5h1.3c.9.1 1.5-.5 2.1-1.1 1.4-1.3 2.9-2.6 4.3-3.9.3-.3.8-.8.9.2 0 .4.4.7.5 1 .3.9.1 1.9-.5 2.6-.5.6-.8 1.3-1.1 2-.2.8-.6 1.6-1 2.3l9.6-6c-.4 2.2 1.4 1.3 2.3 1.9v1.4l1.7-1c7.6-4.8 15.3-9.5 22.9-14.4 5.9-3.8 12-7.5 17.4-11.9 6.9-5.7 13.3-12.1 19.9-18.2 1.5-1.4 2.9-2.9 4.4-4.3.8-.5 1.6-.9 2.5-1.1l-1.3 4.2c2.1.5 4.1 1 6 1.3.8 0 1.5-.3 2.1-.8 1.3-1 2.5-2.2 3.5-3.5 1.4-2.4 2.7-5 3.9-7.5.8-1.7 1.5-3.4 2.3-5.2-1 .8-2.1 1.4-3.3 1.7-1 .3-1.9.9-2.9 1.3-.6.3-1.3.4-2 .2s-1.4-.3-2.1-.3c-.2 0-.4-.3-.6-.5 0 0 0-.2-.1-.2-1-.4-1.3-1.4-1.8-2.2-.5-.4-.8-.9-1-1.5 0-.4-.5-.8-.8-1.2l.2-.2c2.3-.1 4.5 1.1 5.6 3.1 2.7-1.4 5.3-3 7.6-4.9-1-.6-.6-1.5-.3-2.3.4-.9.9-1.8 1.4-2.7.6-1.2.6-2.6.2-3.8 0-.1-.1-.1-.1-.2-.9-.6-1-1.5-1-2.5 1.1.2 2 .9 2.5 1.9 1.3 2 2 4.3 2 6.6 0 .3 0 .7-.1 1 .8-.6 1.8-.5 3.3.1.6.3 1.3.4 1.9.2 1.4-.8 2.7-1.8 2.8-3.5s.1-3 1.8-4c.5-.3.6-1.4.6-2.1 0-3.4.7-6.8 1.9-10 .2-.6.3-1.1.4-1.7.5-5.5.9-11.1 1.4-16.6.2-2.5.4-5 .7-7.9 2.3 1 3.4-.3 4.7-1.4 1.7-1.4.7-3.3.9-4.9 2.6-1.5 2.7-1.6 2.2-4.6-.7-4-1.4-8.1-2.5-12.1-1.6-5.9-3.6-11.6-5.3-17.4-.9-3.2-1.3-6.5-2-9.7-.4-1.8-.2-3.5 1.1-4.7-.6-2.1-1.9-3.8-3.6-5.1-1-.8-1.8-1.8-2.4-2.9-2.1-3.6-3.9-7.2-6-10.8-3.5-5.9-7.3-11.6-10.7-17.5-2.6-4.5-5-9.1-7.5-13.6-.9-1.5-1.9-3-3-4.3-.6-1-1.8-1.3-2.8-.8 1.1 2 2.2 3.8 3.2 5.6s2.1 3.8 3.1 5.6 1.9 3.9 2.9 5.8 2.1 4 3.2 5.9 2.3 3.7 3.3 5.5c1.3 1.8 2.3 3.8 3 5.9-1.6-1.3-2.7-2.1-3.6-3-.7-.6-1.2-1.3-1.5-2.1-.3-1.9-1.5-3.1-2.7-4.4s-2.1-2.6-3.2-3.8c-3-3.1-5.8-6.3-9-9.1-2.9-2.6-3.1-2.5.3-4.1-.1-1.2-1.2-1.1-1.9-1.4-.9-.5-2.1-.8-2.7-1.6-.7-.8-1.6-1.4-2.6-1.6-1.9-.7-4-1.3-5.5-2.5-3.3-2.9-5.2-7-5.4-11.3-.1-2.3.5-3.7 2.7-4.5 2.4-.8 4.3-2.6 5.3-5 14.3-4.7 28.9-7.4 43.9-7.1 2.3.1 4.7-.2 6.9-.8 1.2-.4 2.1-1.9 3.1-2.9 4.5-.4 9 .8 13.5 0 .5-.1 1 0 1.5.1 1.1.3 2.3.5 3.4.6 3.2.1 6.4 0 9.6.2 6.6.4 13.3.2 19.9-.5 4.3-.3 8.5-1 12.6-2.1 2.8-.9 5.7-1.1 8.5-2 1.8-.7 3.5-1.5 5.1-2.5l-.4-.1zm-326.3 6.9c2.7-.8 6-.7 7.8.3-2.5.7-5.3.6-7.8-.3zm89.1 22.9c-4.4.1-8.5-1.5-12.7-3.1 9.5-1.9 19.1-2.3 28.8-1.4l-16.1 4.5zm70.7 49.2c-.3-.1-.7-.3-.9-.5-1.5-1.5-2.3-3.5-2.4-5.6 1-.8 1.5-.2 2.2.4 1.4 1.3 1.1 3 1.6 4.5.1.4-.3.8-.5 1.2zm5 23.2l-.6-.1.1-1.6.7.1-.2 1.6zm20.8-45.8c.4 1.4-.1 2.8-.3 4.2-.4 3.2-1.2 6.3-2.5 9.3-.8 1.8-2.4 2.3-4.2 2.4s-3.7.1-5.6.3c-.8.1-1.6.3-2.3.6-.8.2-1.6 0-2.1-.6l-5.4-5.1c-.7-.7-1.2-.5-1.6.5-.3.8-.7 1.5-1.2 2.2l-.1-.3-1.2-.4c0-.5.1-1.1.1-1.8.1-1.1.4-2.1.5-3.2.1-.4-.1-.8 0-1.2.1-.3.2-.7.4-.9.1-.1.5.1.7.2 1.8.9 2.9 2.7 4.4 4 .2.1.3.3.5.5.6.8 1.6 1.2 2.5.9 2.2-.2 4.3-.4 6.5-.4 2.8-.1 3.7-.8 4.8-3.4 1.2-3.4 2-7 2.5-10.6.1-.8.3-1.5 1.3-1.6 1.2-.2 2.1.2 2.4 1.1.3.8.6 1.5 0 2.4-.3.2-.2.6-.1.9zm-13.9 70.2h-.4l.1-1.3.5.1-.2 1.2zm-51.8 122.8c-.3.9-.5 1.8-.7 2.7-.2.9-.8 1.6-1.6 1.9-1.3.7-2.7 1.3-4.1 1.9-.9.3-1.8.4-2.8.4-.7.1-1.3.1-2 .1-.8-.1-1.5-.2-2.3-.4-.8-.2-1.2-1-1.6-1.6-.1-.1.2-.5.4-.6 1.2-.6 2.4-1.2 3.7-1.6 2.4-.7 4.6-1.9 6.6-3.4 1-.8 1.1-2 1.4-3.1.1-.6.1-1.1.1-1.7.1-.3.1-.6.2-.8 1 .6 1.8 1.6 2.3 2.7.6 1.1.8 2.3.4 3.5zm11.3-14.4c-.1.3-.3.6-.5.8-.8 1-1.6 1.9-2.3 2.9-.3.5-.9.6-1.4.3h-.1c-1-.7-1-.6-1.6.3-.2.3-.5.5-.9.6-.1 0-.4-.1-.5-.2l-.6-.9c.1-.1.2-.2.4-.3.7-.4 1.1-1.3.7-2-.3-1.3-.3-1.3 1-2 1.6-1 3.3-1.7 5.2-2.1.6.6.8 1.6.6 2.6zm41.4-88.7l.5.2-.3 1.2-.4-.1.2-1.3zm-1.2 4.7l.6.1-.4 1.9-.6-.1.4-1.9zm-3.5 49c-.9-.5-1.6-1.3-2-2.3-.2-.6 0-.9.6-.8-.3-.5-.5-1.1-.4-1.7 1.7.4 3.4.8 5.1 1.1s2.5 1.1 1.9 2.9c-1.8.1-3.6 1.1-5.3-.7l.3 1.4-.2.1zm8.7 14.7c-.7.3-1.4.6-2.2.9-1.2.4-2.2-.2-3.4-1.5-.4-.4-.8-.9-1.2-1.4l.1-.8c1.2-.1 2.4-.3 3.6-.4.9-.1 1.9-.3 2.8-.5.5-.1.5 0 .7.3.4.5.6 1.1.7 1.8 0 .6-.4 1.3-1.1 1.6zm48.8-72.2c.9.9 2 1.5 2.9 2.3.9 1 2.4 1.3 3.7.9 2-.7 4-1.5 6-2.3.7-.3 1.4-.6 2.4-1 .2 1.4.4 2.5.6 3.7s-.9 1.1-1.3 1.5c-.9 1-1.9 1.9-3 2.7-.9.7-1.9 1.3-2.9 1.7-.8.2-1.6.1-2.3-.3-2.1-1.4-4.1-3-6-4.7-1.3-1.2-2.2-2.9-2.3-4.7.6-.6 1.6-.6 2.2.1-.1.1 0 .1 0 .1zm-13.3 46.7c1.1.1 2-.6 2.2-1.6l1.5-3.6c.2-.5.6-.5 1-.1.6.5 1 1.2 1.1 1.9 0 .4-.1.8-.3 1.1-.3.6-.5 1.4-.4 2.1.2.8 0 1.7-.5 2.4-.3.3-.8.9-.4 1.6 0 .1-.3.5-.5.5-.5.1-1 .1-1.5.1-1.3 0-1.3-.1-1.6 1.3l.4.1c-.3 1-.6 1.9-1 2.9-.7 1.6-1.5 3.3-2.2 4.9-.1.3-.3.5-.6.7-1.1.9-2.5 1.5-4 1.6-.9 0-1.8.3-2.7.3-1.7 0-3.4-.5-4.8-1.4-1.8-1-3.4-2.3-4.8-3.7-.8-.9-1.6-1.9-2.4-2.9 1.2-.7 1.7 0 2.4.6 1.5 1.6 3.4 2.6 5.5 3 3 .3 6 0 8.1-2.4 1.4-1.7 2.6-3.5 3.8-5.3-3.4-.5-6.2-1.6-6.9-5.5.3 0 .5.1.8.1 2.6 1 5.2 1.4 7.8 1.3zm-14.2-68.1c2.6-1.3 5-2.9 7.3-4.7-1-.6-.6-1.4-.3-2.2.4-.9.8-1.7 1.3-2.6.6-1.1.6-2.4.2-3.6 0-.1 0-.1-.1-.2-.9-.6-.9-1.5-1-2.4 1 .2 1.9.9 2.4 1.8 1.2 1.9 1.9 4.1 2 6.3 0 .8 0 1.5-1 1.9-.5.2-.8.7-1.2 1.1-.5.5-1.3.7-2 .4l1.2 2.1c.4.6.3 1.5-.3 1.9-.9.8-2 1.4-3.2 1.7-1 .3-1.9.8-2.8 1.2-.6.3-1.3.4-1.9.2-.7-.2-1.3-.3-2-.3-.2 0-.4-.3-.6-.5 0 0 0-.2-.1-.2-1-.4-1.2-1.4-1.8-2.1-.4-.4-.7-.9-.8-1.4 0-.4-.5-.8-.8-1.1l.1-.2c2.2-.3 4.3.9 5.4 2.9z"/><path d="M423.6 498v-7c-.9.8-2 1.4-3.1 1.8-1 .4-2 1-2.9 1.5-.6.4-1.4.5-2.1.3-.7-.1-1.4-.2-2.2-.2-.3 0-.5-.3-.7-.5 0 0 0-.2-.1-.2-1.1-.3-1.4-1.4-2.1-2.1-.5-.4-.8-.9-1-1.5-.1-.4-.6-.8-1-1.2l.1-.2c2.4-.3 4.7.9 6 2.9 2.7-1.6 5.3-3.5 7.6-5.6-1.1-.5-.8-1.5-.5-2.4.4-1 .8-1.9 1.3-2.9-.1-1.4-.3-2.8-.4-4.3-.7-.6-1-1.5-1-2.4.2 0 .5.1.7.2-.5-3.8-1.2-7.5-2.1-11.2-1.4-6.7-4-13.1-7.5-19-2.8-4.6-6.3-8.7-10.3-12.3-3.3-2.9-5.8-6.6-9-9.6-8.3-7.6-17.8-13.8-28.1-18.3-1.1-.6-2.2-1.3-3.1-2.2l.2-.3c-2-.4-4-.7-6-1.2-3.7-.9-7.4-2-11.1-2.6-5.3-1-10.6-1.7-16-2-11.6-.1-23.1 1.2-34.3 4-6.4 1.5-12.6 3.4-18.9 5.4-6.9 2.2-13.7 4.6-20.6 7-4.8 1.7-9.6 3.3-14.3 5.4-9 4.1-17.9 8.4-26.7 12.9-6.4 3.3-12.4 7-18.6 10.5-1.6.9-3.2 1.9-4.8 2.9-9.7 5.6-19.6 11.1-29.2 17-13.2 8.1-25.8 17-37.8 26.9-5.6 4.6-11.4 8.9-16.7 13.8-7.7 7.1-14.9 14.6-22.3 22.1-4.3 4.4-8.3 9.1-12.6 13.5-5.4 5.4-10.5 11.2-15.2 17.3-1 1.3-1.8 2.7-2.7 4l.4.3 2.7-2c-.3 1.7-.8 3.1-.1 4.9 1.7-1.8 3.4-2.7 5.8-1.7-.8 1.3-1.9 2.5-2.1 3.8-.4 2.3-1.6 4.5-3.3 6-2.4 2.4-5 4.7-7.5 7-1.6 1.5-3.2 2.9-4.6 4.5-2.4 2.7-4.7 5.5-8.2 7-1.8.8-2.4 2.3-2.3 4.2 2.4-.2 2.6-.1 4.5-2 3.5-3.5 6.9-7.1 10.3-10.7.7-.7 1.3-1.6 2.2-1.8 2.5-.8 4.8-2.1 6.7-4 4.7-4.2 9.6-8.3 14-12.8 2.2-2.3 5.1-4 7.6-5.9 4.3-3.2 8.5-6.6 13-9.6 5.4-3.6 11-6.7 16.5-10.2 6.5-4.2 12.9-8.5 19.4-12.7 8.9-5.8 18.4-10.7 27.9-15.5 3.7-1.9 7.6-3.6 11.1-5.8 6.8-4 13.9-7.6 21.3-10.5 5.8-2.4 11.6-4.6 17.4-6.9 7.7-3.1 15.3-6.4 23.1-9.4 7.1-2.7 14.3-5.3 21.6-7.5 13.3-4 26.7-7.5 40-11.5 5.7-1.7 11.3-2.9 17.3-2.3.6.1 1.3.2 1.7-.1 2.8-2.1 5.9-1.5 8.7-.8 5.7 1.4 11.3 3.1 16.7 5.1 3.6 1.1 6.8 3.2 9.2 6.1 1.6 1.9 3.2 3.7 5 5.4 5.4 5.3 9.1 11.3 10.3 19 .5 3.7.1 7.2-.2 10.8-.6 8.5-2.7 16.4-8.7 22.9-1.2 1.5-2.6 2.9-4.1 4.2-5.9 4.2-11.9 8.2-18 12.1-2.9 1.8-6.4 2.5-9.9 2-1.8-.2-3.6-.9-5.4-.8-6.4.3-12.7-2-17.4-6.4-6.6-5.6-10.4-13.8-10.4-22.5-.1-7.6 1.7-15 4.4-22 1.6-4.3 3.7-8.4 5.6-12.6 1-2.1 1.6-4.3 1.6-6.6-.6.4-1.3.7-2 .9-.7.1-1.5.2-2.2.2l-.7.5-4.5-2-1.6-6c-3.3-.1-3.2 4.2-6 5.6-.1-2.1 2.8-2.7 1.8-4.7-1.6-.1-3.1 1.9-4.9.2l1-1.8c-2.7 1.1-5.3 2.3-7.8 3.7-6.8 3.2-12.9 7.5-19.6 10.9-4.9 2.5-9 6.5-13.4 10-1.6 1.3-1.6 1.6-.3 3.4 1 1.2 1.3 2.9.9 4.4-1.6 5.6-2.4 11.3-2.4 17.1-.1 7.3.2 14.6.9 21.9.9 7 2.6 13.8 5.1 20.3 2.5 6.7 5.1 13.4 9.2 19.3 3.8 5.4 7.9 10.4 12.1 15.5 5.6 6.7 12.6 10.9 20.4 14.3.7.3 1.5.5 2.2.8 6.3 2 13 2.3 19.3 4.3.8.2 1.5.2 2.3.2 3 .2 6 .2 9 .4 1.2.2 2.5.4 3.7.5 2.7-.2 5.4-.5 8-.9 1.4-.2 2.7-.8 4-.6 3.2.3 6.1-.9 9.2-1.5 4.8-1 9.4-2.6 13.7-4.9 5-2.5 10-5.1 15-7.8 2.6-1.4 5.1-3.2 7.8-4.6 5.8-2.9 11-6.7 15.4-11.5 6.6-7.4 12-15.7 16-24.8 2.8-6.3 4.8-12.8 7-19.3 4.3-11.5 6.4-23.1 6.7-34.9zm-207.7-54.5c-.3.3-.4.8-.6 1.2 0 0 0 .1-.1.1-1.3 1-2.4 2.3-4.1 2.5-.9.2-1.9.2-2.8.3-.8.1-1.6-.2-2.1-.9-.7-1-1.4-1.9-1.9-2.9-.1-.2.1-.6.2-.8 2.7.1 5.4.1 7.6-1.7.7-.5 1.4-.9 2.2-1.2.7-.3 1.5-.1 1.9.6.1.1.1.2.1.4.4.8.2 1.8-.4 2.4zm2.4-3.9l-.2-.1v-.8l-.8.3c1.4-2 2-4.5 4-6.1l.2.1-.6 1.1.3.2.4.2c-.8 1.9-1.9 3.6-3.3 5.1zm48.6-11.9c-.3.9-.5 1.8-.7 2.7-.2.9-.8 1.6-1.6 1.9-1.3.7-2.7 1.3-4.1 1.9-.9.3-1.8.4-2.8.4-.7.1-1.3.1-2 .1-.8-.1-1.5-.2-2.3-.4-.8-.2-1.2-1-1.6-1.6-.1-.1.2-.5.4-.6 1.2-.6 2.4-1.2 3.7-1.6 2.4-.7 4.6-1.9 6.6-3.4 1-.8 1.1-2 1.4-3.1.1-.6.1-1.1.1-1.7.1-.3.1-.6.2-.8 1 .6 1.8 1.6 2.3 2.7.6 1 .8 2.3.4 3.5zm4-9.8c-.2-.3-.4-.6-.5-.9.1-.1.2-.2.4-.3.7-.4 1.1-1.3.7-2-.3-1.3-.3-1.3 1-2 1.6-1 3.3-1.7 5.2-2.1.6.8.8 1.8.6 2.7-.1.3-.3.6-.5.8-.8 1-1.6 1.9-2.3 2.9-.3.5-.9.6-1.4.3h-.1c-1-.7-1-.6-1.6.3-.2.3-.5.5-.9.6-.2-.1-.5-.2-.6-.3zm9.2 20.6c-.5.6-.8 1.3-1.1 2-.4 1.4-.9 2.9-2.4 3.5-.6.2-1.2.2-1.8-.1-1.2-.7-2.1-1.7-2.6-2.9-.2-.4-.4-.9-.7-1.5h1.3c.9.1 1.5-.5 2.1-1.1 1.4-1.3 2.9-2.6 4.3-3.9.3-.3.8-.8.9.2 0 .4.4.7.5 1 .3 1.1.1 2.1-.5 2.8zm52.1.6c-.2 1.5-.8 2.9-1.8 4.1-.7.7-1.1 1.5-1.8 2.2-1.2 1.3-2.8 2.1-4.6 2.5-2.1.6-4.2.8-6.3.8-1.3-.1-2.6-.3-3.9-.4.4-1.4 1.3-1.3 2.2-1.3 2.2.1 4.5-.6 6.3-1.9 2.4-2 4.4-4.4 4.2-7.8-.2-2.3-.6-4.5-1.1-6.7-2.9 2.1-5.8 3.4-9.1 1 .2-.2.4-.3.6-.5 2.5-1 4.8-2.5 6.6-4.5.8-.7 1-1.9.4-2.9-.5-1.2-1-2.5-1.5-3.8-.2-.6 0-.8.6-.9.8-.1 1.6.1 2.3.6.3.3.5.7.6 1.1.2.7.7 1.4 1.3 1.8.7.5 1.2 1.2 1.4 2.1.1.4.1 1.3.9 1.5.1.2.1.5 0 .8-.3.4-.6.8-1 1.2-1 .9-1 .9-.3 2.1l.4-.2c.5 1 1 1.9 1.4 2.9.7 1.7 1.3 3.5 2 5.3.3.3.3.6.2.9zM342 426c-.5 1-.8 2-1.2 3.1-.2.7-.7 1.3-1.4 1.6-.6.4-1.2.8-1.8 1.3-.3.1-.6.1-.9.1-.1 0-.2-.1-.2-.1-1 .5-2-.1-3-.3-.6 0-1.2-.1-1.7-.5-.4-.3-1-.2-1.5-.3v-.3c1.6-1.8 4.1-2.5 6.4-1.8 1-3 1.7-6.1 2-9.2-1.2.3-1.6-.6-1.9-1.5-.4-1-.7-2-.9-3-.4-1.3-1.4-2.4-2.6-2.9-.1 0-.1-.1-.2-.1-1.1.3-1.9-.4-2.6-1.1 1-.6 2.1-.8 3.3-.5 2.4.5 4.6 1.7 6.4 3.4.6.6 1.1 1.2.6 2.2-.2.6-.2 1.2-.1 1.8 0 .8-.5 1.5-1.2 1.8.8.2 1.7.5 2.5.8.8.2 1.3.9 1.2 1.7-.2 1.4-.6 2.6-1.2 3.8zm-65.4 134c-.2 1.4-1 2.6-2.2 3.3-1.1.6-1.8 1.8-2.9 2.5-.7.6-1.5.9-2.4 1-.9-.2-1.7-.7-2.3-1.3-2-1.6-3.8-3.3-5.9-4.8-1.4-1-2.6-2.2-3.5-3.7-.5-.8-.9-1.7-1.4-2.6.3-.5.9-.6 1.4-.2l.2.2c2.1 1.8 4.3 3.6 6.4 5.4.9.9 2.4.8 3.3-.1l2.7-2.4c.1-.2.3-.3.5-.4.8-.2 1.4-.8 1.6-1.5.5-1.5.9-3 1.3-4.4.1-.3.2-.6.4-.9 1 .8 1.8 1.8 2.2 3 1 2.3 1.1 4.6.6 6.9zm4.2-4.9c-1.1-.6-1.9-1.6-2.4-2.8-.3-.8 0-1.1.7-1-.4-.6-.6-1.3-.5-2.1 2 .5 4.1 1 6.1 1.3s3 1.3 2.3 3.5c-2.1.1-4.3 1.3-6.4-.8l.4 1.7-.2.2zm10.4 17.7c-.8.4-1.7.7-2.6 1-1.5.5-2.6-.3-4-1.8-.5-.5-.9-1.1-1.5-1.7l.1-1c1.4-.2 2.9-.3 4.3-.5 1.1-.1 2.2-.4 3.3-.7.6-.2.6 0 .9.4.5.6.7 1.4.8 2.2.1.8-.4 1.7-1.3 2.1zm68.1-102.3c-.7-.2-1.4-.3-2.1-.5-2.2-.6-3.9-2.2-4.6-4.3 0-.1-.1-.2-.1-.3-.8-.6-.5-1.2.2-1.9 1.1 1 2.6 1.5 4.1 1.1 1.8-.3 3.3-1.3 4.3-2.8.8-1.1 1.5-2.3 2.3-3.5.2-.2.4-.4.7-.6 1.2.9 2 2.2 2.1 3.8-.1 2.2.6 4.7-1.7 6.4-.2.2-.3.4-.5.6-1.2 1.5-3 2.3-4.7 2zm7.6 57.2c-.3.9-.5 1.8-.7 2.7-.2.9-.8 1.6-1.6 1.9-1.3.7-2.7 1.3-4.1 1.9-.9.3-1.8.4-2.8.4-.7.1-1.3.1-2 .1-.8-.1-1.5-.2-2.3-.4-.8-.2-1.2-1-1.6-1.6-.1-.1.2-.5.4-.6 1.2-.6 2.4-1.2 3.7-1.6 2.4-.7 4.6-1.9 6.6-3.4 1-.8 1.1-2 1.4-3.2.1-.6.1-1.1.1-1.7.1-.3.1-.6.2-.8 1 .6 1.8 1.6 2.3 2.7.6 1.1.7 2.4.4 3.6zm4-9.8c-.2-.3-.4-.6-.5-.8.1-.1.2-.2.4-.3.7-.4 1.1-1.3.7-2-.3-1.3-.3-1.3 1-2 1.6-1 3.3-1.7 5.2-2.1.6.8.8 1.8.6 2.7-.1.3-.3.6-.5.8-.8 1-1.6 1.9-2.3 2.9-.3.5-.9.6-1.4.3h-.1c-1-.7-1-.6-1.6.3-.2.3-.5.5-.9.6-.3-.1-.5-.3-.6-.4zm9.1 20.7c-.5.6-.8 1.3-1.1 2-.4 1.4-.9 2.9-2.4 3.5-.6.2-1.2.2-1.8-.1-1.2-.7-2.1-1.7-2.6-2.9-.2-.4-.4-.9-.7-1.5h1.3c.9.1 1.5-.5 2.1-1.1 1.4-1.3 2.9-2.6 4.3-3.9.3-.3.8-.8.9.2 0 .4.4.7.5 1 .4 1 .2 2-.5 2.8zm21.3 27c-.3.3-.4.8-.6 1.2v.1c-1.3 1-2.4 2.3-4.1 2.5-.9.2-1.9.2-2.8.3-.8.1-1.6-.2-2.1-.9-.7-1-1.4-1.9-2-2.9-.1-.2.1-.6.2-.8 2.7.1 5.4.1 7.6-1.7.7-.5 1.4-.9 2.2-1.2.7-.3 1.5-.1 1.9.6.1.1.1.2.1.4.4.8.3 1.7-.4 2.4zm2.4-3.9l-.2-.1v-.8l-.8.3c1.4-2 2-4.5 4-6.1l.2.1-.6 1.1.3.2.4.2c-.8 1.9-1.9 3.6-3.3 5.1zm3.4-71.4c-.6 1.8-1.3 3.5-2 5.3-.1.3-.3.6-.6.8-1.1 1-2.5 1.7-4 1.9-.9.1-1.8.4-2.8.5-1.8.1-3.5-.2-5.1-1.1-1.9-.9-3.7-2.1-5.3-3.6-.9-.9-1.8-1.9-2.7-2.9 1.2-.8 1.8-.1 2.5.5 1.6 1.6 3.8 2.5 6 2.7 3.1.1 6.2-.4 8.3-3.1 1.3-1.8 2.5-3.8 3.6-5.8-3.6-.3-6.6-1.3-7.5-5.3.3 0 .5 0 .8.1 2.5.9 5.3 1.2 7.9.9 1.1 0 2-.8 2.2-1.9.4-1.3.9-2.5 1.3-3.8.2-.6.6-.6 1.1-.2.7.4 1.2 1.1 1.3 1.9 0 .4-.1.8-.3 1.2-.3.7-.4 1.5-.2 2.2.2.8.1 1.7-.3 2.5-.2.4-.8 1-.3 1.7 0 .1-.3.5-.5.6-.5.1-1 .2-1.5.2-1.4 0-1.4 0-1.6 1.4l.4.1c-.1 1.2-.3 2.2-.7 3.2z"/><path d="M648.2 467.3c-.5-10.3-2.1-20.5-7.3-29.6-1.9-3.3-4.1-6.4-6.2-9.6-3.7-5.8-7.4-11.5-10.9-17.3-1.9-3.2-3.6-6.5-5.1-9.8-2.6-5.7-5.4-11.3-7.3-17.2-3.6-12.4-1.1-25.8 6.6-36.1.7-1 1.3-2.1 1.8-3.3l-4-.7c-.5-1.6 1.6-2.5.2-4h-2.8c.2-.5.3-.9.5-1 3.3-2.4 6.5-4.9 10-7 3.1-1.8 5.7-4.5 7.3-7.7 1.4-2.8 2.6-5.7 3.9-8.5.9-2 1.3-4.1 1.2-6.3-.1-3 0-6.1-.1-9.1 0-.7-.1-1.3-.2-2-1 3.5-1.7 6.9-2.3 10.3-1.2 6.8-4.8 13-10.2 17.3-4.7 3.7-9.3 7.4-14.1 11.1-3.2 2.5-5.8 5.8-7.5 9.6-1 2.2-2.1 4.4-3.4 6.5-3.2 4.7-4.6 10-5.2 15.4-1.1 10.7.7 21.5 5.3 31.2 4.7 10 11.4 18.7 18.1 27.4 3.5 4.6 7.3 8.9 10.9 13.4.6.9 1.2 1.8 1.5 2.8 2.3 5.9 3.3 12.4 2.7 18.7-.4 6.1-1.1 12.3-5.1 17.5-.4.6-.7 1.2-1 1.8-5 10.8-14.5 16.4-24.9 20.6-3.9 1.6-7.7 3.4-12.1 4.1-3.1.5-5.9 2.4-8.9 3.7-2.2 1-4.4 2.1-6.7 3.2l-.4-.6 4.4-4c-2.6.8-4.9 1.5-7.3 2.2-.7.2-1.3.4-1.9.8-5.8 3.7-12.2 6.6-17.7 10.8-5.3 3.8-10.3 8.1-14.9 12.8-2.2 2.4-4.5 4.6-6.8 6.8-6.9 6.9-14.8 12.8-23.4 17.5-2.3 1.3-4.6 2.5-7.4 2.6-5.7.2-10.1-2.5-14.4-5.7-.7-.6-1-1.4-1-2.3.1-2.1.4-4.3 1.1-6.3 2.8-7.3 5.1-14.9 9.5-21.6 3.6-5.5 6.1-11.8 9.3-17.6 2.6-4.7 5.2-9.3 7.9-14-1.2 0-2.4.1-3.5.2-.8.1-1.6.3-2.3.6-.8.2-1.6 0-2.1-.6l-5.4-5.1c-.7-.7-1.2-.5-1.6.5-.3.8-.7 1.5-1.2 2.2l-.1-.3-1.2-.4c0-.5.1-1.1.1-1.8.1-1.1.4-2.1.5-3.2 0-.4-.1-.8 0-1.2.1-.3.2-.7.4-.9.1-.1.5.1.7.2 1.8.9 2.9 2.7 4.4 4 .2.1.3.3.5.5.6.8 1.6 1.2 2.5.9 2.2-.2 4.3-.4 6.5-.4 2.8-.1 3.7-.8 4.8-3.4 1.2-3.4 2-7 2.5-10.6.1-.8.3-1.5 1.3-1.6 1.2-.2 2.1.2 2.4 1.1.3.8.6 1.5 0 2.4-.1.2 0 .6.1.9 0 .1 0 .2.1.3 2-3.7 3.9-7.5 5.5-11.3 2.1-5 3.8-10.2 5.5-15.4s3.2-10.6 4.8-16c1.1-3.5 2.2-7.1 3.3-10.6.9-2.5 1.7-5 2.2-7.6.8-5.1 1-10.2-2.5-15.2l-.7 5.5h-.6c.5-2.7.1-5.4-1.2-7.8-.1-.2-.1-.4-.1-.6-1-3.2-1.8-6.4-2.9-9.5-3.5-9.5-9.4-17-18.5-21.5-11.9-5.8-24.3-9.9-37.8-9.3-2.7.3-5.5.3-8.2.2-3.8-.3-7.3.5-10.9 1.4-4.2 1-8.5 2-12.6 3.1-2.8.7-5.6 1.7-8.4 2.5-.9.3-1.8 1-3.2.6l2.4-2.3c-.5-.1-.8-.3-1-.2-6.4 1.9-12.8 3.7-19 5.9-5 1.8-9.7 4.1-14.5 6.3-2.2 1-4.2 2.4-6.4 3.4-1.8.8-3.4 1.6-3.1 3.9-7.2 3.1-14.3 6-20.8 10.3l.6 2.1 5.9-.9c1.2 2.3 3.8 1.2 5.6 1.6l.3 5.3c1.9-.6 3.2.3 4.5 1.5 1.6 1.6 3.3 3 5.2 4.2 2.5 1.4 4 3.2 4 6.1 2.3-.4 4.3-.6 6.3.7 1.4.9 3.3 1 5.1 1.4.5.1 1-.3 1.7-.5-.4-.6-.7-1-.9-1.4s-.6-.7-.9-1.1c7.1 2.8 12.3 7.6 16.4 14.1-1.9.6-3.9.3-5.6-.8.2.9.5 1.7 1 2.5 2.3 3.3 2.3 3.3-.4 6.1-.1.1-.1.4-.1.7 1.2 1.1 2.5 2.3 3.7 3.5s2 1.5 3.5.4c.9-.6 1.5-1.5 2.4-2.2 2.4-2.3 4.9-4.4 7.6-6.4 3-2.1 6.4-3.7 9.6-5.7 4.6-2.9 9.7-4.6 15.1-5.2 2.5-.1 5-.4 7.5-.8 2.1-.5 5.9 1.5 6.6 3.3 1.6 3.7 2.4 7.7 2.3 11.7 0 2.8-1 5.4-2.8 7.5-.6.8-1.1 1.6-1.4 2.5-1.8 4.7-4.2 9.1-7 13.2-4.8 7.3-9.3 14.7-14 22.1-2.4 3.8-5.1 7.4-7.4 11.3-3.2 5.5-6.2 11.1-9.2 16.7-3.3 6.2-6.6 12.4-9.8 18.7-6.2 12.2-8.7 25.3-9.2 38.8-.2 2.4.1 4.7.6 7 1.4 4.9 2.2 10 5.3 14.3 1.7 2.4 3 5.1 4.9 7.3 3.8 4.4 8.2 8.2 13.7 10.2 4.4 1.6 9 2.5 13.6 2.8 5.4.4 10.7-.5 16-1.1 7.8-1 14.8-4.2 21.4-8.4 8-5.1 15.9-10.2 23.8-15.5 5.4-3.7 10.9-7.2 15.4-12 .9-1 1.9-1.9 2.9-2.9 2.4-2 5-3.7 7.8-5 3.9-2 7.5-4.5 11.3-6.7l14.4-8.6c-1.3-1.7-2.3-.8-3.3-.3-2.9 1.4-5.7 2.8-8.6 4.2-1.5 1.6-3.6 2.6-5.8 2.6l-5.2 2.2c5.9-6.9 13.2-11.8 21.1-15.9 5.5-2.9 11.2-5.5 16.8-8.2 7.2-3.4 14.4-6.7 21.6-10.1l.3.5-12.6 8.8c1.6.9 3.7.8 5.2-.3 2.3-1.4 4.7-2.8 7.1-4.2.9-.5 1.7-1.3 2.9-.7.4.2 1.3-.3 1.9-.6 3.3-1.7 6.5-3.4 9.8-5.1 3.8-1.9 7.4-4 11-6.3 4.4-3.2 8.3-7.1 11.3-11.7 1.3-1.8 2.4-3.8 3.3-5.9 2.1-5.1 3.2-10.4 3.4-15.9.2-4 .3-8.2.1-12.4zm-49.4-75.2c-2.2-5.4-2.7-11.4-1.7-17.1l2.5 17.1h-.8zm-205.2 8.7c.9-1.2 1.3-.7 1.3.5l-1.3-.5zm53.8-18.3c-.2 1.4-1 2.6-2.2 3.3-1.1.6-1.8 1.8-2.9 2.5-.7.6-1.5.9-2.4 1-.9-.2-1.6-.7-2.3-1.3-2-1.6-3.8-3.3-5.9-4.8-1.4-1-2.6-2.2-3.5-3.7-.5-.8-.9-1.7-1.4-2.6.3-.5.9-.6 1.4-.2l.2.2c2.1 1.8 4.3 3.6 6.4 5.4.9.9 2.4.8 3.3-.1l2.7-2.4c.1-.2.3-.3.5-.4.8-.2 1.4-.8 1.6-1.6.5-1.5.9-3 1.3-4.4.1-.3.2-.6.4-.9 1 .8 1.8 1.8 2.2 3 1 2.3 1.2 4.7.6 7zm4.2-4.9c-1.1-.6-1.9-1.6-2.4-2.8-.3-.8 0-1.1.7-1-.4-.6-.6-1.3-.5-2.1 2 .5 4.1 1 6.1 1.3s3 1.3 2.3 3.5c-2.1.1-4.3 1.3-6.4-.8l.4 1.7-.2.2zm10.4 17.7c-.8.4-1.7.7-2.6 1-1.5.5-2.6-.3-4-1.8-.5-.5-.9-1.1-1.5-1.7l.1-1c1.4-.2 2.9-.3 4.3-.5 1.1-.1 2.2-.4 3.3-.6.6-.2.6 0 .9.4.5.6.7 1.4.8 2.2.1.7-.4 1.6-1.3 2zm-25.4 150.6c-.3.9-.5 1.8-.7 2.7-.2.9-.8 1.6-1.6 1.9-1.3.7-2.7 1.3-4.1 1.9-.9.3-1.8.4-2.8.4-.7.1-1.3.1-2 .1-.8-.1-1.5-.2-2.3-.4-.8-.2-1.2-1-1.6-1.6-.1-.1.2-.5.4-.6 1.2-.6 2.4-1.2 3.7-1.6 2.4-.7 4.6-1.9 6.6-3.4 1-.8 1.1-2 1.4-3.2.1-.6.1-1.1.1-1.7.1-.3.1-.6.2-.8 1 .6 1.8 1.6 2.3 2.7.6 1.1.7 2.4.4 3.6zm4-9.8c-.2-.3-.4-.6-.5-.8.1-.1.2-.2.4-.3.7-.4 1.1-1.3.7-2-.3-1.3-.3-1.3 1-2 1.6-1 3.3-1.7 5.2-2.1.6.8.8 1.8.6 2.7-.1.3-.3.6-.5.8-.8 1-1.6 1.9-2.3 2.9-.3.5-.9.6-1.4.3h-.1c-1-.7-1-.6-1.6.3-.2.3-.5.5-.9.6-.2-.2-.5-.3-.6-.4zm9.1 20.7c-.5.6-.8 1.3-1.1 2-.4 1.4-.9 2.9-2.4 3.5-.6.2-1.2.2-1.8-.1-1.2-.7-2.1-1.7-2.6-2.9-.2-.4-.4-.9-.7-1.5h1.3c.9.1 1.5-.5 2.1-1.1 1.4-1.3 2.9-2.6 4.3-3.9.3-.3.8-.8.9.2 0 .4.4.7.5 1 .4 1 .2 2-.5 2.8zm21.3 27c-.3.3-.4.8-.6 1.2v.1c-1.3 1-2.4 2.3-4.1 2.5-.9.2-1.9.2-2.8.3-.8.1-1.6-.2-2.1-.9-.7-1-1.4-1.9-2-2.9-.1-.2.1-.6.2-.8 2.7.1 5.4.1 7.6-1.7.7-.5 1.4-.9 2.2-1.2.7-.3 1.5-.1 1.9.6.1.1.1.2.1.4.4.8.3 1.7-.4 2.4zm2.5-4l-.2-.1v-.7l-.8.3c1.4-2 2-4.5 4-6.1l.2.1-.6 1.1.3.2.4.2c-.8 1.8-2 3.5-3.3 5zM500.8 411c-.3-.8-.6-1.7-.8-2.6-.4-1.1-1.2-2-2.3-2.5-.1 0-.1-.1-.2 0-1 .2-1.6-.4-2.2-1 .8-.5 1.8-.7 2.8-.4 2.1.4 3.9 1.4 5.5 2.9.5.5 1 1 .5 1.9-.1.5-.2 1-.1 1.5 0 .7-.4 1.3-1 1.5.7.2 1.5.4 2.2.6.7.1 1.1.8 1 1.5-.1 1.1-.4 2.2-1 3.2-.4.8-.7 1.8-1.1 2.6-.2.6-.6 1.1-1.2 1.4-.5.3-1.1.7-1.5 1.1-.2.1-.5.1-.7.1-.1 0-.1-.1-.2-.1-.9.4-1.7-.1-2.5-.2-.5 0-1-.1-1.5-.4-.3-.2-.9-.2-1.3-.2v-.2c1.4-1.5 3.5-2.1 5.5-1.5.9-2.6 1.5-5.2 1.7-7.9-1 .2-1.3-.6-1.6-1.3zM483 435.6c1.9.1 3.8-.5 5.4-1.6 2.1-1.7 3.8-3.8 3.6-6.6-.2-1.9-.5-3.9-.9-5.8-2.5 1.8-5 2.9-7.8.8.2-.2.4-.3.6-.4 2.2-.8 4.1-2.2 5.7-3.9.7-.6.9-1.7.4-2.5-.5-1.1-.9-2.1-1.3-3.2-.2-.5 0-.7.6-.7.7-.1 1.4.1 1.9.5.2.3.4.6.5.9.2.6.6 1.2 1.1 1.6.6.4 1.1 1.1 1.2 1.8 0 .4.1 1.1.8 1.2.1.2.1.5 0 .7-.2.4-.5.7-.9 1-.9.8-.9.8-.2 1.8l.3-.2c.4.8.8 1.6 1.2 2.5.6 1.5 1.1 3 1.7 4.5.1.3.1.6.1.8-.1 1.3-.7 2.5-1.5 3.5-.6.6-1 1.3-1.5 1.9-1.1 1.1-2.4 1.8-3.9 2.1-1.8.5-3.6.7-5.4.7-1.1-.1-2.2-.2-3.4-.4.1-1 .9-1 1.7-1zM320 392c4.3-.2 8.6-.1 12.9-.1 1 0 2.2.4 2.7-1.5-1.1-.5-2.2-1.1-3.3-1.5-1.9-.8-3.7-1.5-5.6-2.2l-1.8.1.9-.7c-1.3-.4-3.2-.4-3.8-1.2-.3-.6-1-1-1.7-.9-6.3.1-12.5.2-18.8.4-.7 0-1.9 0-1.9.3-.6 1.9-2.7 1.3-3.7 2.5.1.3.1.5.2.8.1 2.7.6 3.2 3.2 3 1.5-.2 2.9-.4 4.3-.8 3.3-.7 6.8-.5 10 .4-24.3 1.9-47.5 6.8-70.6 12.2-.2 1.4-.6 2.6-.1 3.7 18.8-4.6 37.6-8.5 57.1-11.8l-2.4-.5c1.2-.7 2.6-1.2 4-1.4 6.1-.2 12.2-.5 18.4-.8zM58.8 486.6c3.3-4.5 6.4-9.1 10.1-13.2 2.8-3.1 4.9-6.9 7.5-10.3 2.7-3.7 5.7-7.2 8.9-10.5 3.7-3.8 7.2-8 10.3-12.3 1.1-1.3 1.2-3.1.4-4.6-1.2.5-2.3 1-3.4 1.7-4.8 4-9.1 8.6-12.8 13.6-5 6.4-9.8 13-14.7 19.4-5.2 6.9-9.7 14.2-13.4 22-.6 1.4-1.1 2.8-1.5 4.2 2.5-1.3 4.5-3.4 5.8-5.9 1-1.3 1.9-2.7 2.8-4.1zm111-426.8c1.9.5 3.8.1 5.4.6 2.3.6 4.6.6 6.9.1 7.2-1.4 14.4-2.8 21.5-4.5 9.5-2.3 18.9-5.1 26.7-11.5 3.6-3 7.2-6 10.7-9.1 1.5-1.2 2.2-3.3 1.7-5.2-4.6 3.5-8.7 6.9-12.9 10-5 3.7-10 7.5-16.3 9.2-3.2.8-6.4 1.7-9.6 2.6-9 2.5-18 4.5-27.2 6-2.3.4-4.6 1.1-6.9 1.8zm-31.6 346.7c10.1-5.6 19.5-12.3 28.7-19.2 3.4-2.6 6.8-5.2 10.3-7.8 1.6-1.2 3.2-2.2 4.7-3.4 1.1-.8 1.4-1.8 1-3.4-.5.3-.9.5-1.2.7-2.6 1.8-5.2 3.6-7.9 5.4-.6.3-1.2.5-1.9.7-3.1 1.4-6.3 2.6-9.2 4.4-7.3 4.7-14.5 9.6-21.6 14.6-2.4 1.7-4.6 3.8-6.8 5.6 1 3.7 1.3 3.9 3.9 2.4zm-7.9-380c2.1-.8 4.2-1.4 6.1-2.3 3.9-1.8 7.7-3.8 11.6-5.6 6.4-2.8 12.9-5.4 19.4-8.2 2.9-1.3 5.9-2.6 8.8-4 1.2-.6 2.5-1.2 1.9-3.3-2.1.3-4.2.5-6.2 1.1-12.8 3.4-24.9 8.2-35.7 15.8-2.3 1.6-4.7 3-7.1 4.6-.2.1-.3.5-.5.8.4.1.8.2 1.1.4.3.2.4.5.6.7zm197.6 497.3c.4-.2.8-.5 1.2-.8.7-.6 1.3-1.3 2.1-1.8 3-2.2 6.1-4.2 9-6.5 1.4-1 2.3-2.6 2.7-4.3-8.7 4.8-18.2 6.9-27.6 9.4l.5 1.2-2.1.8c3.2 2.7 10.5 3.7 14.2 2zm-190 36.4c-1.5.5-2.9 1.2-4.4 1.6-2.9.9-6 .2-8.2-1.9-.6-.6-1-1.4-.9-2.2.6-2.1 1.4-4.2 2.5-6.2 1.6-2.6 3.4-5 5.2-7.4.4-.5 1-.9 1.5-1.3 2.9-1.8 5.8-3.5 8.6-5.5 2.3-1.6 2.2-1.9 1.2-4.8-2.7 2.2-5.6 4-7.8 6.5-3.9 4.3-7.5 8.9-11.2 13.5-.8 1.1-1.5 2.3-2.1 3.5-1 2.3-.8 3 .8 4.7 4.5 4.5 9.2 5.3 14.9 2.5 1.7-.8 3.4-1.4 5.2-2 1.6-.6 3.2-1.1 4.8-1.6-3.3-.8-6.8-.6-10.1.6zm5-405.1c-2.8-.6-3.9-.4-6.9 1.5 2.8.2 4.7-1.4 6.9-1.5z"/></g><path class="st2" d="M592.1 383.7h.8l-2.4-16.9c-1.1 5.7-.6 11.6 1.6 16.9zM137.3 177.3c4.1 1.5 8.2 3.1 12.5 3 3.7-.1 7.4-1 11.1-1.5 1.9-.3 3.3-1.3 4.8-2.9-9.5-.9-19.1-.5-28.4 1.4z"/><path class="st3" d="M244.9 203.4c-.4-.9-1.2-1.2-2.4-1.1-.9.1-1.1.8-1.2 1.6-.4 3.6-1.3 7.1-2.4 10.5-1 2.6-1.9 3.3-4.7 3.4-2.1 0-4.3.1-6.4.4-.9.3-1.9-.1-2.5-.9-.1-.2-.3-.3-.5-.5-1.5-1.3-2.5-3-4.3-3.9-.2-.1-.6-.3-.7-.2-.2.3-.4.6-.4.9-.1.4.1.8 0 1.2-.1 1.1-.3 2.1-.5 3.2-.1.6-.1 1.3-.1 1.7l1.2.3.1.3c.5-.7.8-1.4 1.2-2.1.4-1 .8-1.2 1.6-.5l5.3 5c.5.6 1.4.8 2.1.6.7-.3 1.5-.5 2.3-.6 1.8-.2 3.6-.2 5.5-.3s3.4-.6 4.1-2.4c1.3-2.9 2.1-6 2.5-9.2.2-1.4.7-2.7.3-4.1-.1-.3-.2-.7-.1-.9.6-.8.3-1.6 0-2.4zm-14.1 72.5h.4l.2-1.2-.5-.1-.1 1.3zm-53.2 115c-.1.3-.2.5-.2.8 0 .6-.1 1.1-.1 1.7-.2 1.1-.3 2.3-1.4 3.1-2 1.5-4.2 2.6-6.5 3.4-1.2.5-2.5 1-3.6 1.6-.2.1-.4.5-.4.6.4.6.8 1.4 1.6 1.6.7.2 1.5.3 2.2.4.7 0 1.3 0 2-.1.9 0 1.9-.2 2.8-.4 1.4-.6 2.7-1.2 4-1.9.8-.4 1.4-1.1 1.6-1.9.2-.9.4-1.8.7-2.7.3-1.2.2-2.4-.3-3.5-.6-1.1-1.4-2.1-2.4-2.7zm8.1-8.6c-1.2.7-1.3.7-.9 2 .3.8 0 1.6-.7 2-.1.1-.3.2-.4.3.2.3.3.6.5.8.1.1.4.3.5.2.3-.1.6-.3.9-.6.6-1 .6-1 1.6-.3.4.3 1.1.2 1.4-.2.8-1 1.6-1.9 2.3-2.9.2-.2.4-.5.5-.8.2-.9 0-1.9-.6-2.6-1.8.4-3.6 1.1-5.1 2.1zm30.6-159.4c.1 2.1.9 4 2.3 5.5.3.2.6.4.9.5.2-.4.6-.8.5-1.2-.4-1.5-.2-3.2-1.6-4.5-.6-.5-1.1-1-2.1-.3zm16.4 72.6l-.5-.2-.2 1.3.4.1.3-1.2zm-95.4-118.2c4.1 1.5 8.2 3.1 12.5 3l15.9-4.4c-9.5-.9-19.1-.5-28.4 1.4zm-75.4-19.6c2.5 1 5.2 1.1 7.7.3-1.8-.9-5-1-7.7-.3zm162 94.1l.5.1.3-1.5-.7-.1-.1 1.5zm27.8 15.8c.3.4.7.7.8 1.1.1.5.4 1 .8 1.4.6.7.8 1.7 1.7 2.1 0 0 0 .1.1.2.2.2.4.4.6.5.7.1 1.3.2 2 .3.6.2 1.3.2 1.9-.2.9-.4 1.8-.9 2.8-1.2 1.2-.3 2.2-.9 3.1-1.7.6-.4.8-1.3.3-1.9l-1.2-2.1c.7.3 1.4.1 1.9-.4.4-.4.7-.9 1.2-1.1 1-.3 1-1.1 1-1.9 0-2.2-.7-4.4-1.9-6.2-.5-.9-1.4-1.5-2.4-1.8 0 .9.1 1.8 1 2.4.1 0 .1.1.1.2.4 1.2.4 2.5-.2 3.6-.5.8-1 1.7-1.4 2.5-.3.8-.7 1.6.3 2.2-2.2 1.8-4.6 3.4-7.2 4.7-1-1.9-3.1-3.1-5.3-3v.3zm11.3 68.6c.6 3.8 3.4 4.9 6.8 5.4-1.1 1.8-2.4 3.6-3.7 5.2-2.1 2.4-5.1 2.7-8 2.4-2.1-.3-4-1.4-5.5-3-.6-.6-1.2-1.3-2.3-.6.8 1 1.5 2 2.3 2.9 1.4 1.5 3 2.7 4.8 3.7 1.4.9 3 1.4 4.7 1.4.9 0 1.8-.3 2.7-.3 1.4-.1 2.8-.7 3.9-1.6.3-.2.5-.4.6-.7.8-1.6 1.5-3.2 2.2-4.9.4-.9.7-1.9 1-2.8l-.4-.1c.3-1.3.3-1.3 1.6-1.2.5 0 1 0 1.5-.1.2 0 .5-.5.5-.5-.4-.7.1-1.3.4-1.6.5-.7.6-1.5.5-2.3-.1-.7 0-1.4.4-2.1.2-.3.3-.7.3-1.1-.1-.8-.5-1.4-1.1-1.9-.4-.4-.8-.4-1 .1-.5 1.2-1 2.3-1.5 3.5-.2 1-1.2 1.7-2.2 1.6-2.6.1-5.1-.4-7.4-1.4H263zm21.3-40.1c1.9 1.7 3.8 3.2 5.9 4.6.7.4 1.5.5 2.3.3 1-.4 2-1 2.9-1.7 1.1-.8 2.1-1.7 3-2.6.4-.5 1.5-.5 1.3-1.5s-.4-2.3-.6-3.6c-1 .4-1.6.7-2.4 1-2 .8-3.9 1.6-6 2.3-1.3.4-2.7.1-3.6-.9-.9-.8-2-1.4-2.8-2.3-.5-.7-1.5-.8-2.1-.3l-.1.1c.1 1.7.9 3.4 2.2 4.6zm-52.7 4l-.6-.1-.4 1.9.6.1.4-1.9zm1.1 47.3c.6-1.7-.2-2.5-1.9-2.9s-3.4-.7-5.1-1.1c-.1.6.1 1.2.4 1.7-.6-.1-.8.2-.6.8.4 1 1 1.8 1.9 2.3l.3-.1-.3-1.4c1.8 1.8 3.6.8 5.3.7zm3.1 11.6c-.9.2-1.8.4-2.7.5-1.2.2-2.4.3-3.6.4l-.1.8c.5.5.8 1 1.2 1.4 1.1 1.3 2.1 1.9 3.3 1.5.7-.2 1.4-.5 2.1-.8.7-.3 1.1-1 1.1-1.8 0-.6-.3-1.3-.6-1.8-.2-.3-.2-.4-.7-.2z"/><path class="st3" d="M244.9 203.4c-.4-.9-1.2-1.2-2.4-1.1-.9.1-1.1.8-1.2 1.6-.4 3.6-1.3 7.1-2.4 10.5-1 2.6-1.9 3.3-4.7 3.4-2.1 0-4.3.1-6.4.4-.9.3-1.9-.1-2.5-.9-.1-.2-.3-.3-.5-.5-1.5-1.3-2.5-3-4.3-3.9-.2-.1-.6-.3-.7-.2-.2.3-.4.6-.4.9-.1.4.1.8 0 1.2-.1 1.1-.3 2.1-.5 3.2-.1.6-.1 1.3-.1 1.7l1.2.3.1.3c.5-.7.8-1.4 1.2-2.1.4-1 .8-1.2 1.6-.5l5.3 5c.5.6 1.4.8 2.1.6.7-.3 1.5-.5 2.3-.6 1.8-.2 3.6-.2 5.5-.3s3.4-.6 4.1-2.4c1.3-2.9 2.1-6 2.5-9.2.2-1.4.7-2.7.3-4.1-.1-.3-.2-.7-.1-.9.6-.8.3-1.6 0-2.4zm-14.1 72.5h.4l.2-1.2-.5-.1-.1 1.3zm-53.2 115c-.1.3-.2.5-.2.8 0 .6-.1 1.1-.1 1.7-.2 1.1-.3 2.3-1.4 3.1-2 1.5-4.2 2.6-6.5 3.4-1.2.5-2.5 1-3.6 1.6-.2.1-.4.5-.4.6.4.6.8 1.4 1.6 1.6.7.2 1.5.3 2.2.4.7 0 1.3 0 2-.1.9 0 1.9-.2 2.8-.4 1.4-.6 2.7-1.2 4-1.9.8-.4 1.4-1.1 1.6-1.9.2-.9.4-1.8.7-2.7.3-1.2.2-2.4-.3-3.5-.6-1.1-1.4-2.1-2.4-2.7zm38.7-168c.1 2.1.9 4 2.3 5.5.3.2.6.4.9.5.2-.4.6-.8.5-1.2-.4-1.5-.2-3.2-1.6-4.5-.6-.5-1.1-1-2.1-.3zm7.6 28.9l.5.1.3-1.5-.7-.1-.1 1.5zm-86.6-74.5c4.1 1.5 8.2 3.1 12.5 3l15.9-4.4c-9.5-.9-19.1-.5-28.4 1.4zm-75.4-19.6c2.5 1 5.2 1.1 7.7.3-1.8-.9-5-1-7.7-.3zm123.8 224.6c-1.2.7-1.3.7-.9 2 .3.8 0 1.6-.7 2-.1.1-.3.2-.4.3.2.3.3.6.5.8.1.1.4.3.5.2.3-.1.6-.3.9-.6.6-1 .6-1 1.6-.3.4.3 1.1.2 1.4-.2.8-1 1.6-1.9 2.3-2.9.2-.2.4-.5.5-.8.2-.9 0-1.9-.6-2.6-1.8.4-3.6 1.1-5.1 2.1zm50.1-23.3c-.9.2-1.8.4-2.7.5-1.2.2-2.4.3-3.6.4l-.1.8c.5.5.8 1 1.2 1.4 1.1 1.3 2.1 1.9 3.3 1.5.7-.2 1.4-.5 2.1-.8.7-.3 1.1-1 1.1-1.8 0-.6-.3-1.3-.6-1.8-.2-.3-.2-.4-.7-.2zm-3.1-63.5l-.5-.2-.2 1.3.4.1.3-1.2zm19-27.9c.3.4.7.7.8 1.1.1.5.4 1 .8 1.4.6.7.8 1.7 1.7 2.1 0 0 0 .1.1.2.2.2.4.4.6.5.7.1 1.3.2 2 .3.6.2 1.3.2 1.9-.2.9-.4 1.8-.9 2.8-1.2 1.2-.3 2.2-.9 3.1-1.7.6-.4.8-1.3.3-1.9l-1.2-2.1c.7.3 1.4.1 1.9-.4.4-.4.7-.9 1.2-1.1 1-.3 1-1.1 1-1.9 0-2.2-.7-4.4-1.9-6.2-.5-.9-1.4-1.5-2.4-1.8 0 .9.1 1.8 1 2.4.1 0 .1.1.1.2.4 1.2.4 2.5-.2 3.6-.5.8-1 1.7-1.4 2.5-.3.8-.7 1.6.3 2.2-2.2 1.8-4.6 3.4-7.2 4.7-1-1.9-3.1-3.1-5.3-3v.3zm11.3 68.6c.6 3.8 3.4 4.9 6.8 5.4-1.1 1.8-2.4 3.6-3.7 5.2-2.1 2.4-5.1 2.7-8 2.4-2.1-.3-4-1.4-5.5-3-.6-.6-1.2-1.3-2.3-.6.8 1 1.5 2 2.3 2.9 1.4 1.5 3 2.7 4.8 3.7 1.4.9 3 1.4 4.7 1.4.9 0 1.8-.3 2.7-.3 1.4-.1 2.8-.7 3.9-1.6.3-.2.5-.4.6-.7.8-1.6 1.5-3.2 2.2-4.9.4-.9.7-1.9 1-2.8l-.4-.1c.3-1.3.3-1.3 1.6-1.2.5 0 1 0 1.5-.1.2 0 .5-.5.5-.5-.4-.7.1-1.3.4-1.6.5-.7.6-1.5.5-2.3-.1-.7 0-1.4.4-2.1.2-.3.3-.7.3-1.1-.1-.8-.5-1.4-1.1-1.9-.4-.4-.8-.4-1 .1-.5 1.2-1 2.3-1.5 3.5-.2 1-1.2 1.7-2.2 1.6-2.6.1-5.1-.4-7.4-1.4H263zm21.3-40.1c1.9 1.7 3.8 3.2 5.9 4.6.7.4 1.5.5 2.3.3 1-.4 2-1 2.9-1.7 1.1-.8 2.1-1.7 3-2.6.4-.5 1.5-.5 1.3-1.5s-.4-2.3-.6-3.6c-1 .4-1.6.7-2.4 1-2 .8-3.9 1.6-6 2.3-1.3.4-2.7.1-3.6-.9-.9-.8-2-1.4-2.8-2.3-.5-.7-1.5-.8-2.1-.3l-.1.1c.1 1.7.9 3.4 2.2 4.6zm-52.7 4l-.6-.1-.4 1.9.6.1.4-1.9zm1.1 47.3c.6-1.7-.2-2.5-1.9-2.9s-3.4-.7-5.1-1.1c-.1.6.1 1.2.4 1.7-.6-.1-.8.2-.6.8.4 1 1 1.8 1.9 2.3l.3-.1-.3-1.4c1.8 1.8 3.6.8 5.3.7z"/><path d="M383.9 150.9l-3.7-.3c1.2-.7 2.5 0 3.5-1.4-9.5-.4-18.8-.2-28 .2-6.1.3-12.2.2-18.2 0-10.5-.4-21-1.1-31.5-1.4-7-.2-14.1-.1-21.1-.1-2.8-.2-5.6 0-8.4.4-9.1 1.8-18.1 3.9-27.1 5.9-.8.2-1.6.3-2.9.6 1.1-1.3 2.4-2.1 2.5-3.1.4-2.3 2.1-2.3 3.7-2.8s3.4-1.2 5.1-1.8c.8-.3 1.5-.9 2.2-1.2 4.4-2.3 9.3-2.9 13.9-4.4 2.6-.8 5.1-1.6 7.7-2.6 1.7-.6 3.2-1.9 4.9-2.1 3.2-.4 5.9-2 8.9-3.2 1.2-.5 2.5-.9 3.8-1.2 4.5-1.1 9-2 13.4-3.1.6-.2 1.2-.6 1.6-1.1.8-.9 1.4-1.8 2.3-3.1l-3.3.9c.8-1.1 1.9-2 3.1-2.6 1.7-.6 3.3-1.4 4.9-2.2 2.3-1 4.7-1.9 7.1-2.7 1.8-.6 3.9-.8 5.7-1.7.9-.3 1.8-.5 2.8-.6 4.2-.5 8.4-.7 12.5-1.6 3.7-.8 7.4-2.2 11-3.3 1.2-.4 1.6-1.3 2.6-2.7-4.6.2-8.6.1-12.6.5-7.2.8-14.4 1.6-21.5 2.7-14.9 2.4-29.7 4.8-44.4 8.1-6.1 1.4-12.3 2.3-18.2 4.7-2.7 1.1-5.5 1.9-8.2 2.8-2.1.7-4.2 1.3-6.3 2.1-4.1 1.6-8.2 3.4-12.3 5.1s-8 3.3-12.1 4.9c-4.6 1.8-9.2 3.5-14.1 4.1-3.4.4-6.7.9-10 1.6-11.5 2.4-23.1 3.3-34.7 4.4-5.5.5-11 .8-16.4 1.7-3.8.7-7.7.9-11.5.6-5.2-.6-8.8 2-13 5.1l3.9.9c-.4 1-1 1.9-1.5 2.8-.9 1.3-2.1 2.3-3.8 2.1-2.8-.3-5.6-.6-8.3-1.1-5.3-.9-10.7-1.4-16.1-1.5-4.5-.1-9-.4-13.9-.7.6-.8.9-1.1 1.2-1.5 5.9-6.6 7.4-14.6 6.4-22.9-.9-7.3-3.8-14.1-7.1-20.7-1.7-3.4-3.3-6.8-4.8-10.2-1.1-2.5-1.2-5.4-.1-7.9.8-2.3 2-4.4 3-6.6.3-.6.9-1.4.7-1.8-.4-1 .1-1.4.6-2 .5-.6.9-1.3 1.2-1.9 1.7-3.3 3.9-6.4 6.4-9.2 1.2-1.1 2.4-2.3 3.4-3.5 1.9-2.5 4.4-4.6 7.2-6.1 5.7-3.3 11.5-6.5 17.2-9.7l-.1-.4-4.1.6.6-.9c-.3-.1-.5-.1-.8-.1-6.8 1.5-13.4 3.5-19.4 7.3-9.9 6.3-16 15.5-20.6 25.9-1.3 3.1-1.6 6.6-.8 9.9 1.3 5.3 3.4 10.5 6.1 15.2 1.8 3.4 3.3 7 4.3 10.7 2.1 7.2 1.4 15-2 21.7-1.1 2.3-2.7 4.2-4.8 5.6-2 1.3-4.2 2.4-6.1 3.9s-3.7 2.8-6.2 1.4c-.4-.1-.8-.1-1.2-.1-7.1-.1-14.3 0-21.2 2-.7.1-1.4.1-2.1 0-2-3.8-5.3-6.3-8.9-8.4-.8-.4-1.5-.9-2.2-1.4-7.6-5.5-15.1-11.2-18.5-20.5-.4-1.1-.8-2.2-1.3-3.2-.2-.4-.4-.8-.7-1.1-1.3.7-1.3-.5-1.5-1.1-5.9-13.7-5.3-27.4.4-41 1-1.8 2.1-3.6 3.3-5.3.7-1.1 1.4-2.2 2.2-3.3 1.4-2.3 2.9-4.4 4.6-6.5 2.7-3.2 5.7-6.2 8.5-9.3 3.2-3.4 7.7-4.6 11.7-6.6 4.9-2.5 10.1-4.3 15.5-5.6 3.7-.9 7.4-2.2 11.3-1.9 3.5.1 6.9-.5 10.1-1.8 2.4-.7 4.8-1.1 7.3-1.5 2.2-.4 4.4-.7 6.5-1.3 4.2-1.3 8.4-2.7 12.6-4.1 2.9-1 5.8-2.1 8.8-3.3l-.8-2.3c-1 .2-2 .4-2.9.7-7.9 2.8-16 5.1-24.2 6.9-6.8 1.7-13.7 2.4-20.7 2.1-3.4-.3-6.7.1-10 .9-7.2 2.3-14.1 5.3-21.1 7.9-3.7 1.4-7.1 3.5-10.1 6.1-1.8 1.6-3.5 3.3-5.1 5.1-2.6 2.9-5.1 6-7.8 8.9-4.7 4.7-8 9.8-9 16-.8 4.9-1.7 10-1.6 14.9.2 5.6 1.4 11.1 3.4 16.4 2.6 7.4 6 14.5 10.1 21.1 5.4 8.4 11.7 15.8 19.9 21.6.4.2.7.3 1.1.4l-.5.6-13.8 1.9c-.7 2.3.2 3.6 1.7 4.9 1.8 1.7 3.7 3.2 5.8 4.5 3.2 1.8 5.8 4.7 8.5 7.2 2.4 2.1 4.5 4.4 7 6.4 4.5 3.6 9 7.3 12.5 11.9 1.1 1.4 2.2 2.9 3.4 4.3 2 2.2 4.3 4.1 6.9 5.4 1.1-1.3 2.1-2.7 3-4.1 2.3-4.1 6.4-4.7 10.3-5.2 3.2-.4 6.5-.2 9.8-.3 6-.1 11.9.4 17.8 1.4 4.8.8 9.5 1.7 14.2 2.4 3 .4 6 .6 8.9 1 4.6.7 8.4 3 12.7 5.4-.9.5-1.8.9-2.8 1.3-5.4 1.7-10.8 3.6-16.3 5-11.4 3.1-22.7 6.2-33.9 10-2.2.8-4.5 1-6.8.6-2.5-.5-5.1-.7-7.7-.5-1.3.1-2 .6-2 1.9-.1 1.9-1.2 3.6-3 4.3-2.6 1.3-5.2 2.5-7.9 3.6-3.6 1.4-7.3 2.7-11.2 4.2.9 2.9 2.4 5.5 4.3 7.8.9 1 2.2 2.2 4.1 1.4 2-.9 4.2-1.5 6.2-2.3 3.8-1.4 7.7-3 11.8-3.6 1.2 2.3 2.3 4.4 3.3 6.6 1.1 2.5 2.9 4.6 5.2 6.1 1.8 1.1 3.5 2.4 5.1 3.8 2.4 2 5.4 3.1 8.5 3 5.3.2 10.6 1.2 15.5 3.2 6.3 2.5 10.7 7.4 14.9 12.5 3.7 4.7 8.3 8.7 13.4 11.8 4.2 2.5 8.1 5.4 11.7 8.8 5.4 5 11.3 9.3 17.6 12.9 2 1.2 4.3 2.4 6.9 2 .1-2.4-1.5-3.3-3-4.2-6.3-3.9-12.2-8.5-17.6-13.7-4.6-4.4-9.2-8.8-14.1-12.9-7.6-6.4-14.7-13.3-21.3-20.8-2.7-3.1-6.1-5.4-10-6.7-4.8-1.6-9.7-2.7-14.7-3.2-1.2-.1-2.3-.3-3.4-.6-3.1-1.1-5.8-2.7-6.5-6.3-.4-2-.4-4.1-.6-6.3 1.1-.3 1.9-.6 2.7-.7 3-.5 6.1-.9 9.2-1.4 10.1-1.8 20.2-3.1 30.4-3.9 1.3-.1 2.7-.6 4-.4 3.8.6 7.3-.8 11-1.4 1.9-.3 3.7-1 5.7.2 1.1.5 2.5.5 3.6-.1 1.9-1.3 4.5 0 6.1-2 .1-.1.3 0 .5.1 3.7.6 7.2-.7 10.8-1.2 5.4-.7 10.8-1.7 16.3-2.3 2.2-.2 4.4.3 6.6.4.9 0 1.9 0 2.8-.2 2.6-.7 5.4-.1 7.6 1.6 5.7 4.5 9.6 10.5 14.2 15.9 2.1 2.5 2.2 5.4 1.4 8.5-.6 2.1-.8 4.3-1.2 6.9l2.6-1v4.9c1.9 0 3.7-.1 5.3 1 .3.2.9-.2 1.4-.3l2.2-.6c-.2.9-.3 1.4-.4 1.9-.3 1-1 2-1 3 0 1.3-.2 2.6-.5 3.9.4.2.9.4 1.2.8 1.4 1.5 3.2 2.5 5.3 2.8 2.8.3 5.6 0 7.7-2.3 1.3-1.6 2.5-3.3 3.6-5-3.2-.5-5.9-1.5-6.5-5.2.2 0 .5 0 .7.1 2.3 1 4.7 1.4 7.1 1.3 1 .1 1.9-.6 2.1-1.6.4-1.1.9-2.3 1.4-3.4.2-.5.6-.5 1-.1.6.4 1 1.1 1.1 1.8 0 .4-.1.7-.3 1.1-.3.6-.4 1.3-.3 2 .2.8 0 1.6-.4 2.2-.2.3-.7.9-.3 1.5 0 .1-.3.5-.5.5-.5.1-.9.1-1.4.1-1.2 0-1.2-.1-1.5 1.2l.4.1-.9 2.7c-.7 1.6-1.4 3.1-2.1 4.6-.1.3-.3.5-.6.7-1.1.9-2.4 1.4-3.7 1.5-.9 0-1.7.3-2.6.3-1.6 0-3.2-.4-4.5-1.3-1.7-.9-3.2-2.1-4.6-3.5-.5-.6-1-1.1-1.5-1.8-.6 2.5-1.6 5-2.1 7.5-.3 1.5-1.4 2.9-2.3 4.3-.5.9-1.4 1.6-1 3l2.9-.9-.7 4.7c.5.2.9.4 1.4.4 3.2 0 3.4.4 2.5 3.5-.9 3.4-1.6 6.9-2.5 10.4-.3 1.1-.7 2.2-1.1 3.3 0 .1-.3.1-.6.2v-2.2l-1.4.3c.4-2.4 2.8-4.3.7-6.7-.5 1-.9 2.1-1.3 3.2-.5 1.3-.8 2.7-.8 4.1 0 1.2-.2 2.4-.5 3.6-.4 1.9-1 4.3-.3 5.9 1 2.1.6 3.6-.1 5.4-.3.7-1 1.4-.2 2.6 2.2-4.2 4.5-8 5.6-12.5 0 1.9-.1 3.9-.5 5.8-1 4.4-2.7 8.7-5.1 12.5-4.3 7.1-9.3 13.9-14.7 20.2 1.6 1.4 3.3 2.8 5 4.2.8.7 2 .7 2.7-.1.7-.6 1.5-1.3 2.2-2 .1-.1.3-.2.4-.3.6-.1 1.2-.6 1.3-1.3.4-1.2.7-2.4 1.1-3.7.1-.2.2-.5.3-.8.8.6 1.5 1.5 1.8 2.5.7 1.8.8 3.8.4 5.7-.2 1.1-.8 2.1-1.8 2.7-.9.5-1.5 1.5-2.4 2.1-.6.5-1.3.8-2 .8-.7-.2-1.4-.5-1.9-1.1-1.6-1.3-3.2-2.7-4.8-3.9-1.2-.8-2.1-1.8-2.9-3-.1-.3-.3-.5-.4-.8-2.2 2.5-4.6 5-7 7.4-9.5 9.5-20.7 17-31.4 25.1-4.3 3.3-8.7 6.4-13 9.6L135.9 406c-5 3.7-10.1 7.4-15.2 11.1.1 1.9-.3 2.2-2.4 2.2l-2.4 1.7-2.4 1.8c-.1.1-.2.3-.3.4-.1.2-.1.4-.2.5l-.8.9c-2.2 1.2-4.4 2.4-6.6 3.7-.2.1-.5.4-.5.6.1 1.9-1.3 2.3-2.7 2.8-.5.2-.9.9-1.3 1.4-1.2 1.4-2.2 3-4.1 3.5v.1h-.1c-.5 1.1-1 2.2-2.5 1.5-.9 1.8-2.3 3.3-4 4.3-.6.4-1.2.7-1.9.9-1.6.8-2.9 2.1-3.8 3.6-.8 1.2-1.2 2.7-2.3 3.6-1.7 1.4-3.6 2.4-5.3 3.6l1.1.8-.4.3-.8-1c-.3 1-.7 2.1-1.3 3-1.8 2.4-3.9 4.8-5.8 7.1-.4.6-.7 1.1-1 1.8l.5.3c.7-.9 1.4-1.7 2.2-2.4.9-.8 1.2.1 1.6 1l5.3-4.6c-.2 1.3-.8 2.4-1.6 3.4-1.6 2.3-3.4 4.4-5 6.7-2.9 4.2-5.7 8.5-8.5 12.8-1.5 2.4-3.8 4.3-4.3 7.3 0 .3-.4.6-.7.9l-2 1.8c-.2.2-.5.3-.7.5-.2.1-.4.3-.6.5-4.6 6.7-9.3 13.4-13.8 20.3-3 4.7-5.8 9.7-8.5 14.5-.5.9-1.3 1.8-.8 3.6l3-2.8-.8 5.4c1.9-1.4 3.3-3.3 6.1-2-.7 2.9-3.2 5.3-2.6 8.1-3.4 3.3-6.7 6.4-9.9 9.7-1.1 1.1-2 2.4-2.5 3.8-.4 1.3-1.4 2.2-1.6 3.7-.1 1.3-1.4 2.5-2 3.8-.6 1.1-1.1 2.2-1.7 3.4l.4.2 4.8-4.9c-2.4 4.6-5.1 8.9-7.6 13.3-1.8 3.2-3.3 6.6-6.3 9.2 3.2.7 5-1.1 6.6-3.2.2-.2.3-.5.5-.7 1.7-2.5 3.3-5 5-7.4 5.3-7.5 10.6-15 15.9-22.4 3.7-5.1 7.3-10.2 11.1-15.2 3.1-4.2 6.4-8.2 9.6-12.3 2.3-2.8 4.8-5.5 7.1-8.4 3.8-4.9 7.9-9.5 12.4-13.7 3.3-3.1 6.7-6.1 9.9-9.2 2.9-2.8 5.7-5.7 8.5-8.5.5-.4.9-.7 1.4-1-.4 1.8-2.3 2.1-2.5 4.2 21.3-19.1 42-38.1 63.5-56.2l.4.4-1.2 1.9 1.8 1.5c6.4-3.8 12.8-7.6 19.3-11.4 2.1-1.3 3.4-2.8 2.2-5.2l5.9-3.7c-.3 0-.7-.1-1-.2-1.1-.6-2-1.7-2.5-2.9l-.7-1.4h1.3c.9.1 1.5-.5 2.1-1.1l4.2-3.9c.3-.3.7-.8.9.2 0 .4.4.7.5 1 .3.9.1 1.9-.5 2.6-.5.6-.8 1.3-1 2-.2.8-.6 1.6-1 2.3l9.5-6c-.4 2.1 1.4 1.3 2.3 1.9v1.3l1.7-1c7.5-4.7 15.1-9.3 22.6-14.2 5.8-3.8 11.8-7.4 17.2-11.7 6.9-5.6 13.1-11.9 19.6-18 1.5-1.4 2.9-2.9 4.4-4.2.8-.5 1.6-.9 2.4-1.1l-1.3 4.1c2.1.5 4 1 5.9 1.3.8 0 1.5-.3 2.1-.8 1.3-1 2.5-2.1 3.4-3.5 1.4-2.4 2.7-4.9 3.8-7.5.8-1.7 1.5-3.4 2.3-5.1-1 .8-2.1 1.4-3.3 1.7-1 .3-1.9.8-2.9 1.2-.6.3-1.3.4-2 .2s-1.3-.3-2-.3c-.2 0-.4-.3-.6-.5 0 0 0-.2-.1-.2-1-.4-1.2-1.4-1.8-2.1-.4-.4-.7-.9-.8-1.4 0-.4-.5-.8-.8-1.2l.2-.2c2.3-.1 4.4 1.1 5.5 3.1 2.7-1.3 5.2-3 7.5-4.9-1-.6-.6-1.5-.3-2.3.4-.9.9-1.8 1.4-2.6.6-1.2.6-2.5.2-3.7 0-.1-.1-.1-.1-.2-.9-.6-1-1.5-1-2.5 1.1.2 2 .9 2.5 1.9 1.3 1.9 2 4.2 2 6.5 0 .3 0 .7-.1 1 .8-.6 1.8-.5 3.2.1.6.3 1.2.4 1.9.2 1.4-.7 2.6-1.8 2.8-3.5s.1-3 1.8-4c.5-.3.6-1.4.6-2.1 0-3.4.7-6.7 1.9-9.9.2-.5.3-1.1.4-1.7.5-5.5.9-10.9 1.3-16.4.2-2.5.4-4.9.7-7.8 2.3 1 3.4-.3 4.7-1.4 1.7-1.4.7-3.3.9-4.8 2.6-1.5 2.7-1.5 2.2-4.6-.7-4-1.4-8-2.4-11.9-1.6-5.8-3.6-11.4-5.2-17.2-.9-3.1-1.3-6.4-1.9-9.6-.4-1.8-.2-3.4 1.1-4.6-.6-2-1.9-3.8-3.6-5-1-.8-1.8-1.7-2.4-2.8-2-3.5-3.9-7.1-6-10.6-3.5-5.8-7.2-11.5-10.6-17.3-2.6-4.4-4.9-9-7.4-13.4-.9-1.5-1.9-2.9-3-4.3-.6-.9-1.8-1.3-2.7-.8 1.1 1.9 2.2 3.7 3.2 5.6s2.1 3.7 3.1 5.6 1.9 3.8 2.9 5.7 2.1 3.9 3.2 5.9 2.2 3.6 3.3 5.5c1.3 1.8 2.3 3.8 3 5.8-1.6-1.3-2.7-2.1-3.6-3-.7-.5-1.2-1.3-1.5-2.1-.3-1.9-1.5-3-2.7-4.3s-2-2.6-3.2-3.7c-2.9-3-5.7-6.2-8.9-9-2.9-2.5-3-2.4.3-4-.1-1.2-1.1-1.1-1.9-1.4-.9-.5-2.1-.8-2.6-1.5-.7-.8-1.6-1.3-2.6-1.5-1.9-.7-4-1.2-5.4-2.5-3.3-2.8-5.2-6.8-5.4-11.1-.1-2.2.5-3.6 2.6-4.5 2.4-.8 4.3-2.6 5.2-4.9 14.1-4.6 28.5-7.3 43.3-7 2.3.1 4.6-.2 6.9-.8 1.2-.4 2.1-1.9 3.1-2.8 4.4-.4 8.9.8 13.4 0 .5-.1 1 0 1.4.1 1.1.3 2.2.5 3.4.6 3.2.1 6.4 0 9.5.2 6.5.4 13.1.2 19.6-.5 4.2-.3 8.4-1 12.4-2.2 2.7-.9 5.7-1.1 8.4-1.9 1.7-.7 3.4-1.5 5-2.4l-.2-.4zm-322 6.8c2.7-.8 5.9-.7 7.7.3-2.5.8-5.2.7-7.7-.3zm103.8 18.2l-15.9 4.4c-4.3.1-8.4-1.5-12.5-3m82.3 51.7c-.3-.1-.6-.3-.9-.5-1.4-1.5-2.3-3.4-2.3-5.5 1-.8 1.5-.2 2.1.4 1.4 1.3 1.1 3 1.6 4.5 0 .2-.4.6-.5 1.1zm4.9 22.9l-.5-.1.1-1.6.7.1-.3 1.6zm20.5-45.3c.4 1.4-.1 2.8-.3 4.1-.4 3.2-1.2 6.2-2.5 9.2-.8 1.8-2.4 2.3-4.1 2.4s-3.6.1-5.5.3c-.8.1-1.5.3-2.3.6-.8.2-1.6 0-2.1-.6l-5.3-5c-.7-.7-1.2-.5-1.6.5-.3.7-.7 1.5-1.2 2.1l-.1-.2-1.2-.4c0-.4.1-1.1.1-1.7.1-1.1.3-2.1.5-3.2.1-.4-.1-.8 0-1.2.1-.3.2-.7.4-.9.1-.1.5.1.7.2 1.8.9 2.8 2.7 4.3 3.9.2.1.3.3.5.5.5.8 1.5 1.2 2.5.9 2.1-.2 4.3-.4 6.4-.4 2.8-.1 3.7-.8 4.7-3.4 1.2-3.4 2-6.9 2.4-10.5.1-.8.3-1.4 1.2-1.6 1.2-.2 2.1.2 2.4 1.1.3.7.6 1.5 0 2.3-.1.3 0 .8.1 1zm-13.7 69.3h-.4l.1-1.3.5.1-.2 1.2zm-51.1 121.2c-.3.9-.5 1.8-.7 2.7-.2.9-.8 1.6-1.6 1.9-1.3.7-2.6 1.3-4 1.9-.9.3-1.8.4-2.8.4-.7.1-1.3.1-2 .1-.8-.1-1.5-.2-2.2-.4-.8-.2-1.1-1-1.6-1.6-.1-.1.2-.5.4-.6 1.2-.6 2.4-1.1 3.6-1.6 2.4-.7 4.6-1.9 6.5-3.4 1-.8 1.1-2 1.4-3.1.1-.6.1-1.1.1-1.7.1-.3.1-.6.2-.8 1 .6 1.8 1.6 2.3 2.7.6 1.1.7 2.3.4 3.5zm11.1-14.3c-.1.3-.3.6-.5.8-.8 1-1.6 1.9-2.3 2.9-.3.5-.9.6-1.4.3-1-.6-1-.6-1.6.3-.2.3-.5.5-.9.6-.1 0-.4-.1-.5-.2-.2-.3-.4-.5-.5-.8.1-.1.2-.2.4-.3.7-.4 1-1.2.7-2-.3-1.3-.3-1.3.9-2 1.6-1 3.3-1.7 5.1-2.1.6.6.8 1.6.6 2.5zm40.9-87.4l.5.2-.3 1.2-.4-.1.2-1.3zM231 300l.6.1-.4 1.9-.6-.1.4-1.9zm-3.5 48.3c-.9-.5-1.6-1.3-1.9-2.3-.2-.6 0-.9.6-.8-.3-.5-.5-1.1-.4-1.7 1.7.4 3.4.8 5.1 1.1s2.5 1.1 1.9 2.9c-1.7.1-3.5 1.1-5.3-.7l.3 1.4-.3.1zm8.6 14.5c-.7.3-1.4.6-2.1.8-1.2.4-2.2-.2-3.3-1.5-.4-.4-.8-.9-1.2-1.4l.1-.8c1.2-.1 2.4-.3 3.6-.4.9-.1 1.8-.3 2.7-.5.5-.1.5 0 .7.3.4.5.6 1.1.6 1.8s-.4 1.4-1.1 1.7zm48.2-71.2c.9.8 1.9 1.5 2.8 2.3.9 1 2.3 1.3 3.6.9 2-.7 4-1.5 6-2.3.7-.3 1.4-.6 2.4-1 .2 1.4.4 2.5.6 3.6s-.8 1-1.3 1.5c-.9 1-1.9 1.9-3 2.6-.9.7-1.9 1.3-2.9 1.7-.8.2-1.6.1-2.3-.3-2.1-1.4-4-2.9-5.9-4.6-1.3-1.2-2.1-2.9-2.3-4.6.6-.6 1.6-.6 2.2 0 0 .1 0 .2.1.2zm-13.2 46.1c1 .1 2-.6 2.2-1.6.5-1.2 1-2.4 1.5-3.5.2-.5.6-.5 1-.1.6.5 1 1.1 1.1 1.9 0 .4-.1.8-.3 1.1-.3.6-.5 1.4-.4 2.1.2.8 0 1.7-.5 2.3-.3.3-.8.9-.4 1.6 0 .1-.3.5-.5.5-.5.1-1 .1-1.5.1-1.3 0-1.3-.1-1.6 1.2l.4.1c-.3 1-.6 1.9-1 2.8-.7 1.6-1.4 3.2-2.2 4.9-.1.3-.3.5-.6.7-1.1.9-2.5 1.5-3.9 1.6-.9 0-1.8.3-2.7.3-1.7 0-3.3-.5-4.7-1.4-1.8-1-3.4-2.2-4.8-3.7-.8-.9-1.6-1.9-2.3-2.9 1.1-.7 1.7 0 2.3.6 1.4 1.6 3.4 2.6 5.5 3 3 .3 5.9 0 8-2.4 1.3-1.7 2.6-3.4 3.7-5.2-3.4-.5-6.2-1.6-6.8-5.4.3 0 .5.1.7.1 2.7.9 5.3 1.4 7.8 1.3zm-14-67.3c2.6-1.3 5-2.8 7.2-4.7-1-.5-.6-1.4-.3-2.2.4-.9.8-1.7 1.3-2.5.5-1.1.6-2.4.2-3.6 0-.1 0-.1-.1-.2-.9-.5-.9-1.5-1-2.4 1 .2 1.9.9 2.4 1.8 1.2 1.9 1.9 4 1.9 6.2 0 .8 0 1.5-1 1.9-.5.2-.8.7-1.2 1.1-.5.5-1.3.7-1.9.4l1.2 2.1c.4.6.3 1.4-.3 1.9-.9.8-2 1.3-3.1 1.7-1 .3-1.8.8-2.8 1.2-.6.3-1.3.4-1.9.2-.7-.2-1.3-.3-2-.3-.2 0-.4-.3-.6-.5 0 0 0-.2-.1-.2-1-.4-1.2-1.4-1.7-2.1-.4-.4-.7-.9-.8-1.4 0-.4-.5-.8-.8-1.1l.1-.2c2.2-.2 4.3 1 5.3 2.9z"/><path d="M419.2 488.2v-6.9c-.9.8-1.9 1.4-3 1.8-1 .4-1.9 1-2.9 1.5-.6.4-1.3.5-2 .3-.7-.1-1.4-.2-2.1-.2-.3 0-.5-.3-.7-.5 0 0 0-.2-.1-.2-1.1-.3-1.4-1.4-2-2.1-.5-.4-.8-.9-1-1.4-.1-.4-.6-.8-.9-1.2l.1-.2c2.4-.3 4.7.8 5.9 2.9 2.7-1.6 5.2-3.4 7.5-5.5-1.1-.5-.8-1.5-.5-2.3.4-1 .8-1.9 1.3-2.8-.1-1.4-.3-2.8-.4-4.2-.7-.6-1-1.5-1-2.4.2 0 .5.1.7.2-.5-3.7-1.2-7.4-2-11.1-1.4-6.6-3.9-13-7.4-18.8a59.1 59.1 0 0 0-10.1-12.2c-3.2-2.9-5.7-6.5-8.9-9.4-8.2-7.5-17.6-13.6-27.8-18.1-1.1-.6-2.1-1.3-3.1-2.1l.2-.3c-2-.4-4-.7-5.9-1.2-3.7-.8-7.3-2-11-2.6-5.2-1-10.5-1.7-15.8-2-11.4-.1-22.8 1.2-33.8 4-6.3 1.5-12.5 3.3-18.6 5.3-6.8 2.1-13.5 4.5-20.3 6.9-4.7 1.7-9.5 3.2-14.1 5.3-8.9 4-17.7 8.2-26.4 12.6-6.3 3.2-12.3 6.9-18.4 10.4-1.6.9-3.1 1.9-4.7 2.8-9.6 5.6-19.3 11-28.8 16.7-13 8-25.5 16.8-37.3 26.5-5.5 4.5-11.3 8.8-16.5 13.6-7.5 7-14.7 14.4-22 21.8-4.3 4.3-8.1 9-12.4 13.3-5.4 5.4-10.4 11.1-15 17.2-1 1.3-1.8 2.6-2.7 3.9l.4.3 2.7-2c-.3 1.6-.8 3-.1 4.8 1.6-1.8 3.3-2.7 5.8-1.7-.7 1.3-1.9 2.4-2 3.7-.4 2.3-1.5 4.4-3.3 6-2.3 2.4-5 4.6-7.4 6.9-1.5 1.4-3.2 2.8-4.5 4.4-2.4 2.7-4.7 5.4-8.1 6.8-1.7.7-2.4 2.3-2.2 4.2 2.4-.2 2.6-.1 4.5-2 3.5-3.4 6.8-7 10.2-10.5.7-.7 1.3-1.6 2.1-1.8 2.5-.8 4.8-2.1 6.6-4 4.6-4.2 9.4-8.2 13.8-12.7 2.2-2.3 5-3.9 7.5-5.8 4.3-3.2 8.4-6.5 12.8-9.4 5.3-3.5 10.9-6.6 16.2-10.1 6.4-4.1 12.7-8.4 19.1-12.5 8.8-5.7 18.1-10.5 27.5-15.3 3.7-1.9 7.5-3.6 11-5.7 6.7-3.9 13.8-7.4 21-10.3 5.7-2.4 11.5-4.5 17.2-6.8 7.6-3.1 15.1-6.3 22.8-9.3 7-2.7 14.1-5.3 21.3-7.4 13.1-3.9 26.3-7.4 39.4-11.3 5.6-1.7 11.2-2.9 17.1-2.3.6.1 1.3.2 1.7-.1 2.7-2.1 5.9-1.4 8.6-.8 5.6 1.4 11.1 3.1 16.5 5.1 3.5 1.1 6.7 3.2 9.1 6 1.5 1.9 3.2 3.6 4.9 5.3 5.3 5.2 9 11.2 10.1 18.7.5 3.6.1 7.1-.2 10.7-.6 8.4-2.7 16.2-8.6 22.6-1.2 1.5-2.5 2.9-4 4.1-5.9 4.1-11.8 8.1-17.8 12-2.9 1.8-6.4 2.5-9.7 1.9-1.8-.2-3.6-.8-5.3-.8-6.4.2-12.6-2.1-17.3-6.4-6.5-5.5-10.2-13.6-10.3-22.1-.1-7.5 1.7-14.8 4.4-21.8 1.6-4.2 3.7-8.3 5.6-12.4 1-2 1.5-4.3 1.6-6.5-.6.4-1.3.7-2 .9-.7.1-1.4.2-2.2.2l-.7.5-4.5-2-1.6-5.9c-3.3-.1-3.2 4.1-5.9 5.5-.1-2.1 2.8-2.7 1.7-4.7-1.6-.1-3.1 1.8-4.8.2l1-1.8c-2.6 1.1-5.2 2.3-7.7 3.6-6.7 3.2-12.8 7.4-19.4 10.8-4.8 2.5-8.9 6.4-13.2 9.9-1.6 1.3-1.6 1.6-.3 3.3 1 1.2 1.3 2.8.9 4.3-1.6 5.5-2.3 11.2-2.3 16.9-.1 7.2.2 14.5.9 21.7.9 6.9 2.6 13.7 5.1 20.1 2.5 6.6 5 13.2 9.1 19 3.7 5.3 7.8 10.3 12 15.2 5.5 6.6 12.5 10.8 20.2 14.1.7.3 1.4.5 2.2.8 6.2 2 12.8 2.3 19.1 4.2.8.2 1.5.2 2.3.2 3 .1 5.9.2 8.9.4 1.2.2 2.4.4 3.7.5 2.6-.2 5.3-.5 7.9-.9 1.3-.2 2.7-.7 4-.6 3.2.3 6.1-.9 9-1.4 4.7-1 9.3-2.6 13.5-4.8 5-2.5 9.9-5.1 14.8-7.7 2.6-1.4 5-3.2 7.7-4.5 5.7-2.8 10.9-6.6 15.2-11.3a94.3 94.3 0 0 0 15.8-24.5c2.8-6.2 4.8-12.6 6.9-19 3.7-11.1 5.7-22.6 5.9-34.2zm-205-53.7c-.3.3-.4.8-.6 1.2 0 0 0 .1-.1.1-1.3 1-2.4 2.2-4 2.5-.9.2-1.8.2-2.8.3-.8.1-1.6-.2-2.1-.9-.7-.9-1.3-1.9-1.9-2.9-.1-.2.1-.6.2-.8 2.7.1 5.3.1 7.5-1.7.7-.5 1.4-.9 2.2-1.2.7-.4 1.5-.1 1.9.6.1.1.1.3.1.4.4.8.3 1.8-.4 2.4zm2.4-3.9l-.2-.1v-.8l-.8.3c1.4-2 2-4.5 4-6l.2.1-.6 1.1.3.2.4.2c-.8 1.8-1.9 3.5-3.3 5zm48-11.8c-.3.9-.5 1.8-.7 2.7-.2.9-.8 1.6-1.6 1.9-1.3.7-2.6 1.3-4 1.9-.9.3-1.8.4-2.8.4-.7.1-1.3.1-2 .1-.8-.1-1.5-.2-2.2-.4-.8-.2-1.1-1-1.6-1.6-.1-.1.2-.5.4-.6 1.2-.6 2.4-1.1 3.6-1.6 2.4-.7 4.6-1.9 6.5-3.4 1-.8 1.1-2 1.4-3.1.1-.6.1-1.1.1-1.7.1-.3.1-.6.2-.8 1 .6 1.8 1.6 2.3 2.7.6 1.1.7 2.4.4 3.5zm4-9.6c-.2-.3-.4-.5-.5-.8.1-.1.2-.2.4-.3.7-.4 1-1.2.7-2-.3-1.3-.3-1.3.9-2 1.6-1 3.3-1.7 5.1-2.1.6.8.8 1.7.6 2.6-.1.3-.3.6-.5.8-.8 1-1.5 1.9-2.3 2.9-.3.5-.9.6-1.4.3-1-.6-1-.6-1.6.3-.2.3-.5.5-.9.6-.2-.1-.5-.2-.5-.3zm9 20.4c-.5.6-.8 1.3-1 2-.4 1.4-.9 2.9-2.4 3.5-.6.2-1.2.2-1.8-.1-1.1-.6-2-1.7-2.5-2.9l-.7-1.4h1.3c.9.1 1.5-.5 2.1-1.1l4.2-3.9c.3-.3.7-.8.9.2 0 .4.4.7.5 1 .2 1 0 2-.6 2.7zm51.4.5c-.2 1.5-.8 2.9-1.7 4-.7.6-1.1 1.5-1.7 2.2-1.2 1.2-2.8 2.1-4.5 2.4-2 .6-4.1.8-6.3.8-1.3-.1-2.5-.3-3.9-.4.4-1.3 1.3-1.3 2.2-1.3 2.2.1 4.4-.6 6.2-1.8 2.4-2 4.3-4.4 4.2-7.6-.2-2.2-.6-4.4-1.1-6.6-2.9 2.1-5.8 3.3-9 .9.2-.2.4-.3.6-.5 2.5-1 4.7-2.5 6.5-4.4.8-.7 1-1.9.4-2.8-.5-1.2-1-2.5-1.5-3.7-.2-.6 0-.8.6-.9.8-.1 1.6.1 2.2.6.3.3.5.7.6 1 .2.7.7 1.3 1.3 1.8.7.5 1.2 1.2 1.4 2.1.1.4.1 1.3.9 1.4.1.2.1.5 0 .8-.3.4-.6.8-1 1.2-1 .9-1 .9-.3 2.1l.4-.2c.5 1 1 1.9 1.3 2.8.7 1.7 1.3 3.5 1.9 5.2.3.2.4.6.3.9zm9.6-12.9c-.5 1-.8 2-1.2 3-.2.7-.7 1.3-1.3 1.6l-1.8 1.2c-.3.1-.6.1-.8.1-.1 0-.2-.1-.2-.1-1 .5-2-.1-2.9-.3-.6 0-1.2-.1-1.7-.5-.4-.3-1-.2-1.5-.3v-.3c1.6-1.8 4.1-2.4 6.3-1.7 1-2.9 1.7-6 2-9.1-1.2.3-1.5-.6-1.9-1.4-.4-1-.7-2-.9-3-.4-1.3-1.4-2.3-2.6-2.9-.1 0-.1-.1-.2-.1-1.1.3-1.8-.4-2.6-1.1 1-.6 2.1-.8 3.2-.5 2.4.5 4.5 1.7 6.3 3.4.6.6 1.1 1.2.6 2.2-.2.6-.2 1.2-.1 1.7 0 .8-.5 1.5-1.2 1.8.8.2 1.7.5 2.5.7.8.2 1.3.9 1.2 1.7-.1 1.5-.5 2.7-1.2 3.9zm-64.5 132.2c-.2 1.3-1 2.5-2.1 3.2-1.1.6-1.8 1.8-2.8 2.5-.7.6-1.5.9-2.4 1-.9-.2-1.6-.7-2.3-1.3-2-1.5-3.8-3.2-5.8-4.7-1.4-.9-2.6-2.2-3.4-3.6-.5-.8-.9-1.7-1.4-2.5.3-.4.9-.5 1.4-.2.1.1.2.1.2.2 2.1 1.8 4.2 3.6 6.4 5.3.9.9 2.4.8 3.3-.1.9-.8 1.8-1.6 2.6-2.4.1-.2.3-.3.5-.3.8-.2 1.4-.8 1.5-1.5.5-1.5.9-2.9 1.3-4.4.1-.3.2-.6.4-.9 1 .8 1.8 1.8 2.1 3 .9 2.2 1 4.5.5 6.7zm4.2-4.8c-1.1-.6-1.9-1.6-2.3-2.7-.3-.8 0-1 .7-1-.4-.6-.5-1.3-.5-2 2 .4 4 1 6 1.3s3 1.3 2.3 3.4c-2.1.1-4.2 1.3-6.3-.8l.4 1.7-.3.1zm10.2 17.4c-.8.4-1.7.7-2.5 1-1.4.5-2.6-.3-4-1.8-.5-.5-.9-1-1.5-1.7l.1-1c1.4-.2 2.8-.3 4.3-.5 1.1-.1 2.2-.3 3.3-.6.5-.2.6 0 .9.4.5.6.7 1.4.8 2.1 0 .9-.5 1.7-1.4 2.1zm67.2-101c-.7-.2-1.4-.3-2.1-.5-2.1-.5-3.8-2.1-4.6-4.2 0-.1-.1-.2-.1-.2-.8-.6-.5-1.2.2-1.9 1.1 1 2.6 1.4 4 1.1 1.7-.3 3.3-1.3 4.2-2.8.8-1.1 1.5-2.3 2.3-3.4.2-.2.4-.4.7-.6 1.2.9 2 2.2 2.1 3.7-.1 2.1.6 4.6-1.6 6.3-.2.2-.3.4-.4.6-1.2 1.5-3 2.3-4.7 1.9zm7.5 56.5c-.3.9-.5 1.8-.7 2.7-.2.9-.8 1.6-1.6 1.9-1.3.7-2.6 1.3-4 1.9-.9.3-1.8.4-2.8.4-.7.1-1.3.1-2 .1-.8-.1-1.5-.2-2.2-.4-.8-.2-1.1-1-1.5-1.6-.1-.1.2-.5.4-.6 1.2-.6 2.4-1.1 3.6-1.6 2.4-.7 4.6-1.9 6.5-3.4 1-.8 1.1-2 1.4-3.1.1-.6.1-1.1.1-1.7.1-.3.1-.6.2-.8 1 .6 1.8 1.6 2.3 2.7.5 1.1.6 2.4.3 3.5zm4-9.7c-.2-.3-.4-.5-.5-.8.1-.1.2-.2.4-.3.7-.4 1-1.2.7-2-.3-1.3-.3-1.3.9-2 1.6-1 3.3-1.7 5.1-2.1.6.8.8 1.7.6 2.6-.1.3-.3.6-.5.8-.8 1-1.5 1.9-2.3 2.9-.3.5-.9.6-1.4.3-1-.6-1-.6-1.6.3-.2.3-.5.5-.9.6-.2 0-.4-.1-.5-.3zm9 20.4c-.5.6-.8 1.3-1 2-.4 1.3-.9 2.8-2.4 3.5-.6.2-1.2.2-1.8-.1-1.1-.6-2-1.7-2.5-2.9l-.7-1.4h1.3c.9.1 1.5-.5 2.1-1.1 1.4-1.3 2.8-2.6 4.2-3.8.3-.3.7-.8.9.2 0 .4.4.7.5 1 .3.9.1 2-.6 2.6zm21 26.7c-.3.3-.4.8-.6 1.2v.1c-1.3 1-2.4 2.2-4 2.5-.9.2-1.8.2-2.8.3-.8.1-1.6-.2-2.1-.9-.7-.9-1.3-1.9-1.9-2.9-.1-.2.1-.6.2-.8 2.7.1 5.3.1 7.5-1.7.7-.5 1.4-.9 2.2-1.2.7-.4 1.5-.1 1.9.6.1.1.1.3.1.4.4.9.2 1.8-.5 2.4zm2.4-3.9l-.2-.1v-.8l-.8.3c1.4-2 2-4.5 4-6l.2.1-.5 1.1.3.2.4.2c-.9 1.8-2 3.5-3.4 5zm3.3-70.4c-.6 1.7-1.3 3.5-2 5.2-.1.3-.3.6-.6.8-1.1 1-2.5 1.7-4 1.9-.9.1-1.8.4-2.7.5-1.7.1-3.5-.2-5-1.1-1.9-.9-3.7-2.1-5.2-3.5-.9-.9-1.8-1.9-2.6-2.8 1.1-.8 1.8-.1 2.5.5 1.6 1.5 3.7 2.5 5.9 2.7 3.1.1 6.1-.4 8.2-3 1.3-1.8 2.5-3.7 3.5-5.7-3.5-.3-6.5-1.3-7.4-5.2.3 0 .5 0 .8.1 2.5.9 5.2 1.2 7.8.9 1.1 0 2-.8 2.2-1.8.4-1.3.9-2.5 1.3-3.8.2-.6.6-.6 1-.2.7.4 1.1 1.1 1.3 1.9 0 .4-.1.8-.3 1.2-.3.7-.4 1.5-.2 2.2.2.8.1 1.7-.3 2.5-.2.4-.7 1-.3 1.7 0 .1-.3.5-.5.6-.5.1-1 .2-1.5.2-1.4 0-1.4 0-1.6 1.4l.4.1c-.1.8-.3 1.8-.7 2.7z"/><path d="M640.8 458c-.5-10.2-2.1-20.2-7.2-29.2-1.8-3.3-4.1-6.3-6.1-9.5-3.6-5.7-7.3-11.3-10.7-17.1-1.9-3.1-3.5-6.4-5-9.7-2.5-5.6-5.3-11.1-7.2-17-3.5-12.3-1.1-25.5 6.5-35.7.7-1 1.3-2.1 1.7-3.2l-4-.6c-.5-1.6 1.6-2.5.2-3.9h-2.8c.2-.5.3-.8.5-1 3.3-2.3 6.4-4.9 9.8-6.9 3.1-1.8 5.7-4.4 7.3-7.6 1.4-2.8 2.5-5.6 3.8-8.4.9-1.9 1.3-4.1 1.2-6.2-.1-3 0-6-.1-9 0-.7-.1-1.3-.2-1.9-1 3.4-1.7 6.8-2.3 10.2-1.2 6.7-4.7 12.8-10.1 17.1-4.6 3.7-9.2 7.4-13.9 10.9-3.2 2.5-5.7 5.8-7.4 9.5-1 2.2-2.1 4.3-3.4 6.4-3.2 4.6-4.5 9.9-5.1 15.2-1.1 10.5.7 21.2 5.3 30.7 4.6 9.8 11.3 18.4 17.8 27 3.4 4.5 7.2 8.8 10.7 13.2.6.8 1.2 1.8 1.5 2.8 2.3 5.9 3.2 12.2 2.7 18.5-.4 6.1-1.1 12.2-5 17.3-.4.5-.7 1.1-1 1.8-5 10.6-14.4 16.2-24.6 20.4-3.8 1.5-7.6 3.4-11.9 4-3 .4-5.9 2.3-8.7 3.6-2.2 1-4.4 2.1-6.6 3.2l-.4-.6 4.3-4c-2.5.8-4.9 1.5-7.2 2.2-.7.2-1.3.4-1.9.8-5.8 3.7-12 6.5-17.5 10.7-5.3 3.8-10.2 8-14.7 12.6-2.2 2.3-4.5 4.5-6.8 6.7-6.9 6.8-14.6 12.6-23.1 17.3-2.3 1.2-4.5 2.5-7.3 2.6-5.6.2-10-2.5-14.2-5.6-.6-.6-1-1.4-1-2.3.1-2.1.4-4.2 1.1-6.2 2.8-7.3 5-14.7 9.4-21.3 3.6-5.5 6-11.6 9.2-17.3 2.5-4.6 5.2-9.2 7.8-13.8-1.2 0-2.3.1-3.5.2-.8.1-1.5.3-2.3.6-.8.2-1.6 0-2.1-.6l-5.3-5c-.7-.7-1.2-.5-1.6.5-.3.7-.7 1.5-1.2 2.1l-.1-.3-1.2-.4c0-.5.1-1.1.1-1.7.1-1.1.3-2.1.5-3.2 0-.4-.1-.8 0-1.2.1-.3.2-.7.4-.9.1-.1.5.1.7.2 1.8.9 2.8 2.7 4.3 3.9.2.1.3.3.5.5.5.8 1.5 1.2 2.5.9 2.1-.2 4.3-.4 6.4-.4 2.8-.1 3.7-.8 4.7-3.4 1.2-3.4 2-6.9 2.5-10.5.1-.8.3-1.4 1.2-1.6 1.2-.2 2 .2 2.4 1.1.3.7.6 1.5 0 2.3-.1.2 0 .6.1.9 0 .1 0 .2.1.3 2-3.6 3.8-7.4 5.5-11.2 2.1-5 3.8-10.1 5.4-15.2s3.2-10.5 4.8-15.7c1.1-3.5 2.2-7 3.2-10.5.9-2.4 1.6-4.9 2.2-7.5.8-5 1-10-2.4-15l-.6 5.4h-.6c.5-2.6.1-5.4-1.1-7.7-.1-.2-.1-.4-.1-.6-.9-3.1-1.7-6.3-2.9-9.4-3.4-9.3-9.3-16.7-18.3-21.2-11.7-5.8-23.9-9.7-37.3-9.2-2.7.2-5.4.3-8.1.2-3.7-.3-7.2.5-10.8 1.3-4.2 1-8.3 2-12.5 3.1-2.8.7-5.5 1.6-8.2 2.5-.9.3-1.8.9-3.1.6l2.4-2.2c-.5-.1-.8-.3-1-.2-6.3 1.9-12.6 3.6-18.8 5.9-4.9 1.8-9.6 4-14.3 6.2-2.2 1-4.2 2.4-6.3 3.4-1.8.8-3.4 1.5-3.1 3.8-7.1 3.1-14.1 5.9-20.5 10.1l.6 2.1 5.8-.9c1.2 2.3 3.7 1.2 5.5 1.6l.3 5.2c1.8-.6 3.1.3 4.4 1.4 1.6 1.6 3.3 3 5.2 4.2 2.5 1.4 3.9 3.1 4 6 2.3-.4 4.2-.6 6.3.7 1.4.9 3.3 1 5 1.3.4.1 1-.3 1.7-.5-.4-.6-.6-1-.9-1.4s-.6-.7-.9-1.1c6.8 2.7 12.5 7.6 16.2 14-1.9.6-3.9.3-5.5-.8.2.9.5 1.7 1 2.4 2.3 3.3 2.3 3.3-.3 6.1-.1.1-.1.4-.1.7 1.2 1.1 2.5 2.2 3.7 3.4s2 1.5 3.5.4c.9-.6 1.5-1.5 2.3-2.1 2.4-2.2 4.9-4.4 7.5-6.3 3-2.1 6.3-3.7 9.5-5.6 4.5-2.8 9.6-4.6 14.9-5.1 2.5-.1 4.9-.4 7.4-.8 2.1-.5 5.9 1.5 6.5 3.3 1.6 3.6 2.3 7.6 2.2 11.6 0 2.7-1 5.3-2.7 7.5-.6.7-1.1 1.6-1.4 2.5-1.8 4.6-4.1 8.9-6.9 13-4.7 7.2-9.1 14.5-13.8 21.8-2.4 3.7-5.1 7.3-7.3 11.1-3.2 5.4-6.1 11-9 16.5-3.3 6.1-6.5 12.3-9.6 18.5-6.1 12-8.6 24.9-9 38.3-.2 2.3.1 4.6.6 6.9 1.4 4.8 2.2 9.9 5.3 14.2 1.7 2.3 3 5 4.8 7.2 3.7 4.4 8 8.1 13.5 10.1 4.2 1.5 8.7 2.5 13.2 2.7 5.4.4 10.5-.4 15.8-1.1 7.7-1 14.6-4.1 21.1-8.3 7.9-5 15.7-10.1 23.4-15.3 5.3-3.6 10.8-7.1 15.2-11.8.9-1 1.9-1.9 2.9-2.8 2.3-2 4.9-3.7 7.7-5 3.8-1.9 7.5-4.4 11.2-6.6l14.2-8.5c-1.3-1.7-2.3-.7-3.3-.3-2.8 1.4-5.7 2.7-8.5 4.1-1.5 1.6-3.6 2.6-5.8 2.6l-5.2 2c5.8-6.8 13-11.7 20.8-15.7 5.5-2.8 11-5.5 16.6-8.1 7.1-3.4 14.2-6.7 21.3-10l.3.5-12.4 8.7c1.6.9 3.6.8 5.1-.3 2.3-1.4 4.6-2.8 7-4.1.9-.5 1.6-1.3 2.9-.7.4.2 1.3-.3 1.8-.6 3.2-1.7 6.5-3.3 9.6-5.1 3.7-1.9 7.3-4 10.8-6.2 4.4-3.2 8.2-7 11.2-11.5 1.3-1.8 2.3-3.7 3.2-5.8 2.1-5 3.2-10.3 3.4-15.7.4-4.1.4-8.3.2-12.4zm-48.7-74.2c-2.1-5.4-2.7-11.2-1.6-16.9l2.4 16.9h-.8zm-202.6 8.6c.8-1.2 1.2-.7 1.3.5l-1.3-.5zm53.2-18.1c-.2 1.3-1 2.5-2.1 3.2-1.1.6-1.8 1.8-2.8 2.5-.7.6-1.5.9-2.4 1-.9-.2-1.6-.7-2.3-1.3-2-1.5-3.8-3.2-5.8-4.7-1.4-.9-2.6-2.2-3.4-3.6-.5-.8-.9-1.7-1.4-2.5.3-.4.9-.5 1.4-.2.1.1.2.1.2.2 2.1 1.8 4.2 3.6 6.4 5.3.9.9 2.4.8 3.3-.1.9-.8 1.8-1.6 2.6-2.4.1-.2.3-.3.5-.4.8-.2 1.4-.8 1.5-1.5.5-1.5.9-2.9 1.3-4.4.1-.3.2-.6.4-.9 1 .8 1.8 1.8 2.1 3 .8 2.3 1 4.5.5 6.8zm4.1-4.8c-1.1-.6-1.9-1.6-2.3-2.7-.3-.8 0-1 .7-1-.4-.6-.5-1.3-.5-2 2 .4 4 1 6 1.3s3 1.3 2.3 3.4c-2.1.1-4.2 1.3-6.3-.8l.4 1.7-.3.1zm10.3 17.4c-.8.4-1.7.7-2.5 1-1.4.5-2.6-.3-4-1.8-.5-.5-.9-1-1.5-1.7l.1-1c1.4-.2 2.8-.3 4.3-.5 1.1-.1 2.2-.3 3.3-.6.5-.2.6 0 .9.4.5.6.7 1.4.8 2.1-.1.8-.6 1.7-1.4 2.1zM432 535.5c-.3.9-.5 1.8-.7 2.7-.2.9-.8 1.6-1.6 1.9-1.3.7-2.6 1.3-4 1.9-.9.3-1.8.4-2.8.4-.7.1-1.3.1-2 .1-.8-.1-1.5-.2-2.2-.4-.8-.2-1.1-1-1.5-1.6-.1-.1.2-.5.4-.6 1.2-.6 2.4-1.1 3.6-1.6 2.4-.7 4.6-1.9 6.5-3.4 1-.8 1.1-2 1.4-3.1.1-.6.1-1.1.1-1.7.1-.3.1-.6.2-.8 1 .6 1.8 1.6 2.3 2.7.5 1.1.6 2.3.3 3.5zm4-9.7c-.2-.3-.4-.5-.5-.8.1-.1.2-.2.4-.3.7-.4 1-1.2.7-2-.3-1.3-.3-1.3.9-2 1.6-1 3.3-1.7 5.1-2.1.6.8.8 1.7.6 2.7-.1.3-.3.6-.5.8-.8 1-1.5 1.9-2.3 2.9-.3.5-.9.6-1.4.3-1-.7-1-.6-1.6.3-.2.3-.5.5-.9.6-.2-.1-.5-.3-.5-.4zm9 20.4c-.5.6-.8 1.3-1 2-.4 1.3-.9 2.8-2.4 3.5-.6.2-1.2.2-1.8-.1-1.1-.6-2-1.7-2.5-2.9l-.7-1.4h1.3c.9.1 1.5-.5 2.1-1.1 1.4-1.3 2.8-2.6 4.2-3.8.3-.3.7-.8.9.2 0 .4.4.7.5 1 .3.9 0 1.9-.6 2.6zm21 26.6c-.3.3-.4.8-.6 1.2v.1c-1.3 1-2.4 2.2-4 2.5-.9.2-1.8.2-2.8.3-.8.1-1.6-.2-2.1-.9-.7-.9-1.3-1.9-1.9-2.9-.1-.2.1-.6.2-.8 2.7.1 5.3.1 7.5-1.7.7-.5 1.4-.9 2.2-1.2.7-.4 1.5-.1 1.9.6.1.1.1.3.1.4.3.9.2 1.9-.5 2.4zm2.4-3.8l-.2-.1v-.8l-.8.3c1.4-2 2-4.5 4-6l.2.1-.5 1.1.3.2.4.2c-.9 1.8-2 3.5-3.4 5zm27-166.6c-.3-.8-.6-1.7-.8-2.5-.4-1.1-1.2-2-2.2-2.5-.1 0-.1-.1-.2 0-1 .2-1.6-.4-2.2-1 .8-.5 1.8-.7 2.8-.4 2 .4 3.9 1.4 5.4 2.9.5.5 1 1 .5 1.9-.1.5-.2 1-.1 1.5 0 .7-.4 1.3-1 1.5l2.1.6c.7.1 1.1.8 1 1.5-.1 1.1-.4 2.2-1 3.2-.4.8-.7 1.7-1 2.6-.2.6-.6 1.1-1.1 1.4-.5.3-1 .7-1.5 1.2-.2.1-.5.1-.7.1-.1 0-.1-.1-.2-.1-.9.4-1.7-.1-2.5-.2-.5 0-1-.1-1.4-.4-.3-.2-.8-.2-1.3-.2v-.2c1.4-1.5 3.5-2.1 5.4-1.5.9-2.5 1.4-5.1 1.7-7.8-1.1-.1-1.4-.9-1.7-1.6zm-17.6 24.3c1.9.1 3.8-.5 5.3-1.6 2.1-1.7 3.7-3.7 3.6-6.6-.2-1.9-.5-3.8-.9-5.7-2.5 1.8-4.9 2.9-7.7.8.2-.2.4-.3.5-.4 2.1-.8 4-2.1 5.6-3.8.7-.6.9-1.6.4-2.4-.5-1-.9-2.1-1.3-3.2-.2-.5 0-.7.5-.7.7-.1 1.4.1 1.9.5.2.3.4.6.5.9.2.6.6 1.2 1.1 1.5.6.4 1 1.1 1.2 1.8 0 .4.1 1.1.8 1.2.1.2.1.4 0 .7-.2.4-.5.7-.9 1-.9.8-.9.8-.2 1.8l.3-.2c.4.8.8 1.6 1.1 2.4.6 1.5 1.1 3 1.6 4.5.1.3.1.5.1.8-.1 1.3-.7 2.5-1.5 3.5-.6.6-1 1.3-1.5 1.9-1 1.1-2.4 1.8-3.9 2.1-1.7.5-3.6.7-5.4.7-1.1-.1-2.2-.2-3.3-.4.6-1.2 1.3-1.1 2.1-1.1zm-160.9-43c4.2-.1 8.5-.1 12.7-.1 1 0 2.2.4 2.6-1.5-1.1-.5-2.1-1-3.3-1.5-1.8-.8-3.7-1.4-5.5-2.1l-1.8.1.8-.7c-1.3-.4-3.1-.3-3.7-1.2-.3-.6-1-1-1.7-.9-6.2.1-12.3.2-18.5.4-.7 0-1.8 0-1.9.3-.6 1.9-2.6 1.3-3.7 2.5.1.3.1.5.2.8.1 2.6.6 3.2 3.2 3 1.4-.2 2.9-.4 4.3-.8 3.3-.6 6.6-.5 9.8.4-23.9 1.9-46.8 6.7-69.6 12-.2 1.4-.6 2.6-.1 3.6 18.6-4.6 37.1-8.4 56.3-11.6l-2.4-.5c1.2-.7 2.6-1.2 4-1.4 6.2-.3 12.2-.6 18.3-.8zM59.2 477c3.2-4.4 6.3-9 10-13.1 2.8-3.1 4.9-6.8 7.4-10.1 2.7-3.6 5.6-7.1 8.8-10.4 3.7-3.8 7.1-7.8 10.2-12.1 1.1-1.3 1.2-3.1.4-4.5-1.2.5-2.3 1-3.3 1.7-4.7 4-9 8.5-12.7 13.4-5 6.3-9.6 12.8-14.5 19.2-5.1 6.8-9.6 14.1-13.2 21.7-.6 1.4-1.1 2.7-1.5 4.1 2.5-1.3 4.5-3.3 5.7-5.8.9-1.4 1.8-2.8 2.7-4.1zM168.7 55.9c1.9.5 3.7.1 5.3.6 2.2.6 4.6.6 6.8.1 7.1-1.4 14.2-2.8 21.2-4.5 9.4-2.3 18.6-5 26.3-11.3 3.6-2.9 7.1-6 10.6-9 1.5-1.2 2.2-3.2 1.7-5.1-4.5 3.5-8.5 6.8-12.7 9.9-5 3.7-9.9 7.5-16 9-3.2.8-6.3 1.7-9.5 2.5-8.8 2.4-17.8 4.4-26.8 6-2.3.4-4.6 1-6.9 1.8zM137.6 398c10-5.5 19.2-12.1 28.3-18.9 3.4-2.5 6.7-5.1 10.1-7.7 1.5-1.1 3.1-2.2 4.7-3.3 1-.8 1.4-1.8.9-3.4-.5.3-.9.5-1.2.7-2.6 1.8-5.1 3.6-7.7 5.4-.6.3-1.2.5-1.9.7-3 1.4-6.3 2.6-9.1 4.4-7.2 4.6-14.3 9.5-21.3 14.4-2.4 1.7-4.6 3.7-6.7 5.5 1 3.4 1.3 3.6 3.9 2.2zm-7.9-375c2.1-.8 4.1-1.4 6.1-2.3 3.9-1.8 7.6-3.8 11.4-5.5 6.4-2.8 12.8-5.4 19.1-8.1 2.9-1.2 5.8-2.5 8.6-3.9 1.1-.6 2.5-1.2 1.9-3.2-2 .3-4.1.5-6.2 1-12.6 3.3-24.5 8-35.2 15.5-2.3 1.6-4.7 3-7 4.5-.2.1-.3.4-.5.8.4.1.8.2 1.1.4.4.3.6.5.7.8zm195 490.8c.4-.2.8-.5 1.2-.8.7-.6 1.3-1.3 2-1.8 3-2.1 6-4.2 8.9-6.4 1.4-1 2.3-2.5 2.6-4.2-8.6 4.7-18 6.9-27.3 9.2l.5 1.1-2.1.8c3.4 2.7 10.6 3.7 14.2 2.1zm-187.4 35.8c-1.4.5-2.9 1.1-4.4 1.6-2.8.9-5.9.2-8.1-1.8-.6-.6-1-1.4-.9-2.2.6-2.1 1.4-4.2 2.5-6.1 1.6-2.5 3.3-5 5.2-7.3.4-.5.9-.9 1.5-1.2 2.8-1.8 5.8-3.4 8.5-5.4 2.3-1.6 2.2-1.9 1.2-4.8-2.7 2.2-5.5 4-7.7 6.4-3.9 4.2-7.4 8.8-11 13.3-.8 1.1-1.5 2.2-2.1 3.5-1 2.2-.8 2.9.8 4.6 4.4 4.5 9.1 5.2 14.7 2.5 1.7-.7 3.4-1.4 5.1-1.9 1.6-.5 3.1-1 4.7-1.6-3.3-.9-6.8-.7-10 .4zm4.9-399.7c-2.7-.6-3.9-.4-6.9 1.5 2.9.2 4.7-1.4 6.9-1.5z"/></g></g></g></svg>