<svg id="Camada_1" xmlns="http://www.w3.org/2000/svg" viewBox="0 0 16.3 95.8"><style>.st0{fill:#211915}</style><title>words</title><g id="Camada_2"><path class="st0" d="M11.1 8.3c.2 0 .4.1.5.2.1.1.2.2.2.4s-.1.3-.2.3c-1.4 0-2.8.1-4 .2l.1.1c0 .1 0 .2-.1.2 0 .1-.1.2-.1.3v3.3c.3-.1.5-.3.8-.5.3-.2.5-.4.7-.7.1-.1 0-.2-.1-.3-.2-.2-.4-.4-.7-.6-.1 0-.2-.1-.2-.2s.1-.1.3-.1c.1 0 .3 0 .4.1.2.1.3.3.5.4l.3.3c.2-.4.3-.8.4-1.2 0-.1 0-.2-.1-.2-.4.1-.9.2-1.3.3-.1 0-.2 0-.3-.1-.2 0-.2 0-.2-.1s0-.1.1-.1c.7-.1 1.4-.3 2-.6.2 0 .4.1.6.2.3.2.5.3.5.5 0 .1 0 .1-.1.1-.2.1-.3.3-.5.5-.2.4-.4.7-.6 1.1.6.4 1.6.9 3.1 1.3 0 .1-.1.2-.2.2-1 .2-1.5.3-1.7.3-.2 0-.3 0-.5-.1-.4-.3-.7-.7-1.1-1.1-.3.3-.5.5-.9.7-.3.2-.6.3-1 .3v.3c0 .3-.1.5-.2.6-.1.1-.2.2-.3.2-.1 0-.2-.1-.3-.3-.1-.2-.2-.5-.2-.7 0-.1 0-.2.1-.3 0-.2.1-.3.1-.5v-.5c-.2.1-.5.2-.7.3-.5.2-1 .5-1.5.8h-.1c-.1 0-.3-.1-.6-.4-.1-.1-.2-.3-.2-.5 0-.1 0-.1.1-.1s.2 0 .3.1c.1 0 .3 0 .6-.1l.4-.1v-1.8c0-.3 0-.7-.1-1v-.2c-.2 0-.3.1-.5.1s-.3-.1-.4-.2c-.2 0-.3-.1-.3-.2H4c1.3-.1 2.5-.3 3.5-.4s2-.3 2.9-.4c.2-.1.5-.1.7-.1zM5.7 5.7c.2 0 .4 0 .6.1 0 0 .1 0 .1.1 1-.1 2.1-.3 3.1-.5.3.1.5.1.8.3.4.3.7.4.7.6 0 0 0 .1-.1.1-.2.2-.3.3-.4.6-.1.3-.2.6-.4.9-.1.1-.3.2-.4.3-.1.1-.2.1-.3.1-.1 0-.2-.1-.2-.1s0-.1-.1-.1c-.5 0-.9.1-1.4.1-.3 0-.6.1-.7.1 0 .1-.1.2-.2.2s-.2-.1-.3-.2c-.1-.1-.2-.1-.2-.2-.1-.4-.2-.7-.2-1.1 0-.3-.1-.5-.2-.7-.1-.2-.2-.3-.3-.4 0-.1 0-.2.1-.2zM7 12.2V10c0-.2 0-.4-.1-.6-.3 0-.6.1-.9.1v.3c0 .1-.1.3-.1.4.2-.1.3-.1.4-.1h.1c.3 0 .5.1.5.2s0 .2-.1.2c-.2 0-.4.1-.7.1H6v.7l.4-.1h.1c.3 0 .5.1.5.2s0 .2-.1.2c-.2.1-.4.1-.7.2h-.3v.7l.6-.2.5-.1zm0-4.3c.2 0 .5 0 .8-.1.4 0 .7-.1 1.1-.2h.4c.1-.2.2-.5.2-.7 0-.2.1-.4.1-.5-.1-.3-.2-.4-.3-.4-.9.2-1.8.3-2.6.3l.1.5c.4 0 .8-.1 1.2-.2h.2c.4 0 .7.2.7.5 0 0 0 .1-.1.1-.4 0-.8.1-1.2.1h-.8l.2.6zM5.7 18.7c.2 0 .5.1.7.2.3.1.5.2.5.4 0 .1 0 .1-.1.1-.1.1-.2.3-.2.5-.2.7-.4 1.3-.5 1.9h.4l.4-.1v-.1c0-.2-.1-.3-.2-.5 0-.1.1-.1.2-.1.2 0 .4 0 .6.1.3.1.5.2.5.3 0 0 0 .1-.1.1-.1.1-.2.3-.2.4 0 .1-.1.3-.1.4.8-.1 1.6-.2 2.2-.3 0-.1-.1-.2-.2-.3-.1-.2-.3-.4-.5-.5l-.1-.1s0-.1.1-.1h.2c.1 0 .3.1.4.1l.7-1.4v-.1c0-.1 0-.1-.1-.1s-.3 0-.4.1c-.3.1-.7.3-1 .5-.1.1-.2.1-.4.2-.2 0-.4-.1-.5-.3-.1-.1-.2-.2-.2-.3h.5c.3 0 .5 0 .8-.1l.9-.3.6-.3.1-.1.6.3c.4.2.5.4.5.5 0 .1-.1.2-.2.2-.3.1-.6.3-.8.5-.3.3-.6.5-.9.8l.1.1c.2.1.3.2.4.4l.1.2c.4-.1.8-.2 1.2-.2h.5c.2 0 .4.1.6.2.2.1.3.2.3.4s-.1.3-.2.3c-.7 0-1.4 0-2.1.1.1.3.2.7.2 1 0 1.2-.2 2-.5 2.5s-.5.7-.8.7c-.1 0-.2-.1-.3-.2-.3-.4-.6-.8-1-1.1 0 0 0-.1.1-.1s.1.1.2.1c.2.1.3.1.5.1.3 0 .5-.2.6-.7.1-.5.2-1 .2-1.5 0-.3 0-.6-.1-.9h-.1c-.5 0-.9.1-1.3.2-.1 0-.2 0-.3.1-.2 0-.4-.1-.5-.2l-.2-.2c-.1.5-.3.9-.5 1.4l-.1.2c.2.1.3.3.5.5s.4.5.5.8c0 .3-.1.5-.3.5-.2 0-.4-.1-.5-.3-.2-.3-.4-.5-.6-.7-.2.1-.3.2-.5.4-.4.3-.8.6-1.2.7-.2.1-.4.1-.6.1h-.1c.3-.2.5-.4.7-.5.4-.3.8-.7 1.1-1.2-.3-.3-.6-.6-1-.9.1 0 .1-.1.1-.2v-.2c.1-.3.2-.5.2-.8-.4.1-.9.3-1.2.4h-.1c-.1 0-.3-.1-.5-.4-.1-.1-.2-.2-.2-.4 0-.1 0-.1.1-.1s.2 0 .2.1h.8l1-.1c.1-.3.1-.7.2-1.1.1-.4.1-.9.1-1.3 0-.1-.1-.3-.1-.4 0-.1-.1-.1-.1-.2s.1-.1.3-.1zM6.8 22c-.2 0-.5.1-.8.2h-.1c-.1.3-.2.6-.3.8v.1c0 .1 0 .2.1.2l.7.4c.1-.2.2-.5.3-.8 0-.2.1-.6.1-.9zm-1.1 9.9c.3 0 .6.1.8.2.3.1.4.2.4.3 0 .1-.1.2-.1.2-.2.2-.3.4-.3.5l-.9 1.2c.2-.1.5-.1.8-.2.1 0 .2-.1.3-.1h.1l.6.3c.4.2.6.4.6.4v.1c-.1.2-.2.5-.3.8 0 .7 0 1.5-.1 2.2 0 .2-.2.5-.3.6l-.4.4c-.1 0-.1 0-.1-.1-.1-.2-.1-.5-.2-.7-.2 0-.4 0-.6.1l-.8-.1c0 .1 0 .2-.1.3 0 .1-.2.2-.3.2-.1 0-.2-.1-.3-.3-.1-.1-.1-.2-.2-.3v-.5c0-1.5-.1-2.5-.3-2.8.1 0 0-.1 0-.2s.1-.2.3-.2c.2 0 .3 0 .5.1.1 0 .1 0 .2.1.2-.5.4-.9.5-1.4.1-.2.1-.4.1-.6 0-.1-.1-.3-.2-.4 0-.1.1-.1.3-.1zm-.5 5.6h.3c.2 0 .5-.1.7-.1h.1c.1 0 .2 0 .3.1 0-.2.1-.6.1-1.2v-1c0-.2 0-.3-.1-.5-.1-.1-.3-.2-.5-.2h-.3c-.3 0-.5.1-.7.1v1.2c.1 0 .3-.1.4-.1.1 0 .2-.1.3-.1.4 0 .6.2.6.4 0 .1-.1.1-.2.1s-.3 0-.6.1h-.4v1.2zm4.1-6.2c.3 0 .5.1.7.2.2.1.4.3.4.4 0 .1 0 .2-.1.2s-.1.1-.1.2c-.2.5-.5 1-.7 1.5h.1c.3-.1.7-.2 1.2-.3.1 0 .2-.1.3-.2.2.1.5.2.7.3.4.2.6.4.6.4v.1c-.1.4-.2.7-.3 1.1 0 1-.1 2.1-.2 3.1-.1.3-.3.7-.6.9-.4.3-.6.5-.7.5-.1 0-.2 0-.3-.1l-.8-1.1-.1-.1c.3.1.7.2 1 .2.1 0 .2-.1.3-.3.2-.6.4-1.2.4-1.9v-1.5c0-.2 0-.5-.1-.7-.1-.1-.3-.2-.5-.2h-.3c-.2.1-.5.1-.7.2-.1 0-.2-.1-.3-.1-.3.4-.6.7-.9 1.1-.2.1-.2.2-.3.2 0 0-.1 0-.1-.1.3-.6.6-1.2.8-1.8.1-.4.3-.9.4-1.3 0-.2.1-.4.1-.6v-.2c0-.1 0-.1.1-.1zm-.8 4.3c.1 0 .2 0 .4.1.3.1.5.2.8.3.2.1.2.3.2.5 0 .1-.1.3-.2.3-.1.1-.2.2-.3.2-.1 0-.2-.1-.2-.2-.2-.3-.4-.7-.6-1.1-.1.1-.1 0-.1-.1zM4.8 45.8c.2 0 .5 0 .7.1l.1.1c.2 0 .4 0 .6-.1l1.4-.2v-1.2c0-.4-.1-.7-.2-1 0-.1.1-.1.2-.1.2 0 .5 0 .7.1.4.1.6.2.6.4 0 .1 0 .2-.1.2-.1.2-.2.5-.2.8v.7c.2 0 .4 0 .6-.1.4 0 .8-.1 1.2-.2h.2c.3.1.6.2.9.4.5.3.8.5.8.6 0 .1 0 .1-.1.2-.2.1-.4.3-.6.5-.2.3-.4.6-.5 1 .1.1.2.3.2.4 0 .1-.1.1-.2.1-.8 0-1.7 0-2.5.1v1.5c0 .7-.1 1.3-.2 2-.1.5-.2.8-.3.8-.1 0-.2-.3-.2-.8 0-.1-.1-1.2-.1-3.4-.6.1-1 .1-1.2.1-.3.2-.4.3-.6.3-.2 0-.3-.1-.4-.2-.1-.1-.1-.2-.1-.3-.2-.4-.3-.8-.3-1.3l-.3-.9c-.1-.2-.2-.3-.3-.4 0-.2 0-.2.2-.2zm1.5 2.3c.3 0 .8-.1 1.3-.1v-1.7c-.5.1-1 .1-1.6.2l.3 1.6zm2.2-1.9v1.7c.5 0 1-.1 1.5-.2.1-.2.2-.4.2-.5.1-.3.1-.5.1-.8 0-.2-.1-.2-.4-.2-.3-.1-.8-.1-1.4 0zM4.8 57.1c.2 0 .4 0 .6.1.9 0 2.1-.1 3.4-.3.5-.1 1-.1 1.6-.2h.1c.3.1.5.2.7.3.4.3.7.5.6.6 0 .1 0 .2-.1.2-.1.2-.2.7-.2 1.5 0 .4 0 1 .1 1.9 0 1.5.1 2.4.1 2.8 0 .3-.1.6-.2.8-.1.2-.2.4-.3.4-.1 0-.2-.1-.3-.2-.1-.3-.3-.7-.4-1-1.1 0-2.1.1-3.2.2-.9.1-1.5.2-1.8.2 0 .1-.1.1-.1.2-.1.1-.2.2-.3.2-.1 0-.2-.1-.3-.3-.1-.2-.2-.5-.2-.8 0-.2 0-.3.1-.5s.1-.5.1-.7c.1-1.3.1-2.7.1-4.4 0-.2 0-.4-.1-.6-.1-.1-.1-.2-.1-.3 0 0 0-.1.1-.1zm.8 6.7c.5 0 1.1-.1 1.9-.2 1-.1 1.8-.2 2.3-.3.2 0 .3-.1.5-.1.1 0 .3 0 .4.1.1-.9.1-1.8.1-2.7 0-.9-.1-1.8-.2-2.7 0-.2-.1-.4-.2-.5-.1-.1-.2-.1-.3-.1-.3 0-.7 0-1.1.1-1.1.1-2.2.1-3.2.3h-.2v.1c-.1.1-.1.2-.1.3V60c.1 0 .3 0 .4.1H6c.1 0 .2 0 .3-.1.2 0 .4-.1.5-.2.1 0 .2-.1.2-.1.2 0 .3.1.5.2.3.2.4.3.4.3v.1c-.2.1-.3.3-.4.4-.1.1-.1.2-.1.3.1.1.1.2.1.3-.3 0-.5 0-.8.1l-.3.1c0 .1-.1.2-.2.2s-.2-.1-.2-.1c0-.1-.1-.1-.1-.2-.1-.2-.1-.4-.2-.6 0-.1-.1-.3-.1-.4 0 0 0-.1-.1-.1.1 1.2.1 2.4.1 3.5zm2.5-1.9c.1 0 .1 0 .1.1s0 0-.1.1c-.2.1-.5.3-1 .5-.2.1-.5.2-.8.4 0 0-.1 0-.1.1-.1 0-.2-.1-.4-.3-.1-.1-.2-.2-.2-.4 0 0 0-.1.1-.1H6c.4-.1 1-.2 1.7-.3.2-.1.3-.1.4-.1zm.5-3.3c.4 0 .7.2.7.5 0 .1-.1.1-.2.1l-.7.1c.1.2.2.5.2.8.1.3.2.5.3.8v-.1c.1-.3.2-.6.2-.9l-.1-.2c0-.1 0-.1.1-.1.2 0 .4.1.6.2.2.1.3.2.3.3 0 0 0 .1-.1.1-.1.2-.2.4-.3.5-.1.3-.3.6-.4.9.1.2.3.4.4.5 0 0 .1.1.2.1.1-.2.3-.5.4-.7h.1v.1c0 .5.1 1 .2 1.4v.1c0 .1-.1.2-.2.2-.2 0-.4-.1-.5-.2-.3-.1-.5-.3-.7-.6-.1-.1-.2-.2-.2-.3-.3.4-.7.8-1.2 1-.1.1-.3.2-.4.2.4-.4.7-.8 1-1.3.1-.1.2-.3.3-.5l-.1-.1c-.1-.6-.3-1.1-.5-1.5-.1-.2-.1-.4-.2-.6-.1 0-.3 0-.4.1-.3 0-.6.1-.8.1-.2 0-.3 0-.5-.1 0-.2-.1-.2-.1-.3 0 0 0-.1.1-.1.6-.1 1.1-.2 1.6-.3 0-.1-.1-.2-.1-.3l-.3-.6s.1-.1.2-.1c.2 0 .4 0 .5.1.3 0 .4.1.4.2s0 .2-.1.3v.3c.1-.1.2-.1.3-.1zm-2.1 2.6l.2-.1c.1 0 .2-.1.4-.1.1-.2.1-.3.1-.5 0-.1 0-.1-.1-.1s-.2 0-.3.1c-.1 0-.2 0-.3.1v.6zm2.7-3.4h.3c.2 0 .4.1.6.2.1.1.2.2.2.4 0 .1-.1.2-.1.3-.1.1-.2.1-.3.1-.1 0-.1-.1-.2-.1-.2-.2-.4-.5-.5-.8-.1 0-.1 0 0-.1-.1 0 0 0 0 0zm.6 16.7H8.7l.1.1c.5.4 1 .8 1.5 1.1.8.4 1.7.8 2.6 1.1v.1s-.1.1-.2.1c-.6.1-1.3.2-1.9.2-.1 0-.3 0-.4-.1-.6-.5-1.2-1.1-1.7-1.8-.1-.1-.1-.2-.2-.2v2.4c0 .2-.1.4-.2.6-.2.2-.3.3-.4.3-.1 0-.2-.1-.3-.2-.1-.2-.2-.5-.1-.7 0-.8.1-1.5.1-2.1-.2.2-.4.3-.6.5-.4.3-.8.6-1.2.8-.4.2-.7.3-1.1.5-.2.1-.4.1-.6.2h.1c.4-.2.7-.4 1.1-.7.5-.3 1-.7 1.4-1 .2-.2.4-.4.6-.7-.5.1-1 .1-1.5.3-.1-.3-.2-.3-.3-.3-.2 0-.4-.1-.5-.3-.2-.2-.2-.3-.2-.3s0-.1.1-.1c.4 0 1.3-.1 2.6-.2h.3c0-.2-.1-.5-.2-.7 0-.1.1-.2.3-.2.2 0 .4.1.6.1.2.1.3.2.3.3 0 0 0 .1-.1.1 0 .1 0 .1-.1.2.8-.1 1.4-.2 1.9-.3h.2c.2 0 .5.1.7.2.2.1.3.3.3.5s-.1.3-.2.3-.5 0-.9-.1c-.4.1-.6.1-.8 0zm-3.6-5.6c.3 0 .5 0 .8.1.2.1.3.1.3.2v.5l.4-.1c.5-.1 1-.1 1.5-.2 0-.2.1-.3.1-.5 0-.1-.1-.2-.2-.3 0-.1.1-.1.2-.1.2 0 .5 0 .7.1.2.1.3.1.3.2s0 .1-.1.2l-.1.2c.1 0 .2 0 .4-.1.2 0 .4-.1.6-.1.2 0 .4.1.6.2.2.1.3.2.3.4s-.1.3-.2.3c-.8 0-1.5 0-2.2.1-.1.2-.3.4-.4.6-.1 0-.1.1-.2.1h-.1c.1-.1.1-.3.2-.5-.5 0-1 .1-1.5.1h-.2v.5c0 .2 0 .3-.1.3-.2 0-.3-.1-.4-.3s-.1-.3-.1-.4l-1.1.2c-.1 0-.3.1-.4.1-.2 0-.4-.1-.5-.2-.2-.1-.2-.2-.2-.3 0 0 0-.1.1-.1l2-.2c-.1-.2-.2-.4-.4-.6l-.1-.1c-.1-.2 0-.3 0-.3zm-.5 3.7H6c.2.1.4.1.6.2.1.1.2.2.2.4 0 .1-.1.2-.1.2-.1.1-.2.1-.3.1-.1 0-.2-.1-.2-.1-.2-.2-.4-.4-.5-.7-.1 0-.1-.1 0-.1-.1 0 0 0 0 0zm2.6-1.8c.3 0 .5.1.7.2.3.2.5.3.5.4 0 0-.1.1-.2.1-.4.1-.6.1-.7.2-.2 0-.4.1-.6.1-.5.2-1 .2-1.5.3h-.3c.4-.1.8-.3 1.2-.5.2-.1.4-.2.6-.4.1-.1.2-.2.3-.4-.1 0 0 0 0 0zm-.9 1.3h.3c.2 0 .4.1.6.2.1.1.2.2.2.3 0 .1-.1.2-.1.2-.3.2-.4.2-.5.2-.1 0-.1 0-.2-.1-.2-.2-.3-.5-.5-.7.1 0 .1-.1.2-.1-.1 0-.1 0 0 0zm2.6-.4c.2 0 .3.1.5.3.2.2.3.3.3.4 0 .1-.1.1-.2.2-.3.1-.5.2-.8.3-.3.2-.7.3-1 .4v-.1c.2-.2.5-.4.6-.6.2-.2.3-.5.5-.7 0-.2.1-.2.1-.2zM6.7 82.8c.1 0 .2 0 .3.1.2.1.3.2.3.3v.2c0 .1-.1.1-.1.1-.5.1-.9.3-1.4.3h.1c0 .2.1.3.1.4 0 .1 0 .1-.1.1-.1.2-.2.4-.3.5-.1.3-.2.6-.3.8.2 0 .4-.1.5-.2.1 0 .2-.1.2-.1.2 0 .4.1.5.2.5.3.7.4.7.5v.2c-.2.2-.3.5-.4.8-.1.2-.1.3-.1.5.1.1.2.3.2.4h-.1c-.3 0-.6 0-1 .1-.2 0-.3.1-.5.1v.2c0 .2-.1.4-.2.4s-.2-.1-.3-.1c-.1-.1-.1-.1-.1-.2-.1-.4-.2-.7-.2-1.1-.2.3-.5.5-.8.7-.1.1-.3.2-.4.2.4-.5.7-1 .9-1.5.1-.1.1-.2.1-.3v-.1c0-.1-.1-.3-.2-.4 0-.1.1-.1.2-.1h.3c.1-.2.1-.4.2-.6.1-.3.2-.7.2-1V84h-.2c-.3 0-.6-.1-.8-.3-.1-.1-.1-.1-.1-.2s0-.1.1-.1c.6 0 1.1-.1 1.7-.2l.9-.3c-.1-.1 0-.1.1-.1zm-1.4 4.7c.1 0 .2-.1.3-.1.1 0 .3-.1.4-.1 0-.5.1-.9.1-1.1H6c-.1 0-.2 0-.4.1-.2 0-.3.1-.5.1l.2 1.1zm2.1.9s.1 0 .1.1c.1.1.1.3.1.5 0 .3-.1.5-.2.8 0 .2-.1.3-.2.5-.1.1-.1.1-.2.1s-.3-.1-.4-.2c0-.1-.1-.2-.1-.3 0-.1 0-.2.1-.3.3-.3.5-.6.6-1 .1-.1.1-.2.2-.2zm1-6.6c.2 0 .5.1.7.2.2.1.3.3.3.4 0 .1-.1.1-.1.2-.1 0-.1.1-.1.2-.2.5-.5.9-.8 1.4.2.1.3.3.3.3 0 .1 0 .2-.1.2 0 .1 0 .2-.1.3l.1 2.4c.4-.1.9-.1 1.2-.2v-.7h-.4c-.2 0-.3 0-.5-.1-.1 0-.2-.1-.2-.2 0 0 0-.1.1-.1.3 0 .6-.1 1-.1v-.6h-.4c-.2 0-.3 0-.5-.1l-.2-.2s0-.1.1-.1l1-.2v-.3c0-.1-.1-.2-.1-.3h-.2c-.3 0-.6-.1-.8-.3-.1-.1-.1-.1-.1-.2 0 0 0-.1.1-.1.6 0 1.2-.1 1.8-.2l.9-.3s.1-.1.2-.1.2 0 .3.1c.2.1.3.2.3.3v.2c0 .1-.1.1-.1.1l-1.2.3c.1.1.2.1.2.2v.4h.3c.5 0 .7.2.7.5 0 .1 0 .1-.1.1-.3.1-.6.1-.9.2 0 .2 0 .3-.1.5l.2-.1h.3c.4 0 .7.2.7.5 0 .1 0 .1-.1.1-.4.1-.7.1-1.1.2v.6c.3-.1.5-.1.8-.2h.3c.2 0 .3.1.5.1.1.1.2.2.2.4 0 .1 0 .2-.1.2-.7 0-1.5 0-2.2.1-.3 0-.7.1-1 .2h-.2c-.1 0-.2 0-.3-.1 0 .1-.1.2-.1.3-.1.2-.2.3-.2.3-.2 0-.3-.2-.4-.6 0-.1-.1-.2-.1-.2 0-.2 0-.6.1-1.4 0-.5.1-.9.1-1.4v-.2c-.2.2-.4.5-.7.7-.1.1-.2.2-.3.2v-.1c.3-.5.6-1 .9-1.6-.4-.5-.3-.9-.2-1.3 0-.2.1-.3.1-.5v-.2c0-.1.1-.1.2-.1zm.1 6.8h.3l.6.3c.1.1.2.3.2.5 0 .1-.1.2-.2.3-.1.1-.2.1-.3.1 0 0-.1 0-.2-.1-.2-.3-.3-.6-.4-1 0 0-.1 0 0-.1zm1.4-6.8h.3c.2 0 .5.1.7.2.1.1.2.2.2.4 0 .1-.1.2-.1.3-.1.1-.2.1-.3.1-.1 0-.1-.1-.2-.1-.2-.3-.4-.5-.5-.9-.2.1-.2.1-.1 0-.1 0-.1 0 0 0zm.2 6.6c.1 0 .2 0 .3.1l.6.3c.1.1.2.3.2.5 0 .1-.1.2-.2.3-.1.1-.2.1-.3.1-.1 0-.1 0-.2-.1-.2-.3-.4-.6-.5-1 0-.1 0-.1.1-.2-.1 0-.1 0 0 0zm1.6-.2h.2l.6.3c.2.1.4.3.5.5.1.1.1.3.1.4 0 .1 0 .3-.1.4-.1.1-.2.2-.3.2-.1 0-.3 0-.3-.2-.1-.2-.2-.3-.3-.5-.1-.3-.2-.6-.4-.8v-.3c0 .1 0 0 0 0z" id="Camada_1-2"/></g></svg>